<svg width="1707" height="844" viewBox="0 0 1707 844" fill="none" xmlns="http://www.w3.org/2000/svg">
<mask id="mask0_1804_3" style="mask-type:luminance" maskUnits="userSpaceOnUse" x="823" y="-20" width="884" height="771">
<path d="M1690.54 -19.5264H1202.84C1199.59 18.3335 1176.72 88.6635 1057.87 126.312C890.018 179.495 808.655 249.376 825.324 373.128C841.993 496.879 959.916 583.801 1120.5 608.107C1281.11 632.414 1329.43 732.043 1463.07 746.574C1573.31 758.543 1643.94 743.721 1706.71 709.058V-3.33092C1706.71 -12.2609 1699.47 -19.5264 1690.52 -19.5264H1690.54Z" fill="white"/>
</mask>
<g mask="url(#mask0_1804_3)">
<path d="M1690.54 -19.5264H1202.84C1199.59 18.3335 1176.72 88.6635 1057.87 126.312C890.018 179.495 808.655 249.376 825.324 373.128C841.993 496.879 959.916 583.801 1120.5 608.107C1281.11 632.414 1329.43 732.043 1463.07 746.574C1573.31 758.543 1643.94 743.721 1706.71 709.058V-3.33092C1706.71 -12.2609 1699.47 -19.5264 1690.52 -19.5264H1690.54Z" fill="#F5F5F5"/>
<path d="M1414.23 255.585L1326.47 282.824L1259.06 242.692C1257.71 241.9 1257.95 239.865 1259.45 239.416C1267.62 236.88 1276.25 236.193 1284.71 237.382L1414.2 255.585H1414.23Z" fill="#FFBB8A"/>
<path d="M1277.18 236.853L1340.39 274.475L1405.27 254.343L1284.73 237.408C1282.22 237.065 1279.71 236.88 1277.18 236.88V236.853Z" fill="#FFBB8A"/>
<path d="M1118.49 314.449L1117.38 314.792C1109.12 317.355 1100.19 316.615 1092.47 312.705L1011.08 271.49C1007.78 269.799 1003.93 269.482 1000.39 270.592L994.733 272.335C993.65 272.679 993.121 273.868 993.544 274.898L1022.97 344.118L1027.25 354.079L1121.69 324.753L1118.49 314.449Z" fill="#FFBB8A"/>
<path d="M1203.42 358.438L1564.46 246.338C1585.17 239.918 1605.06 231.173 1623.82 220.288L1671.31 192.705C1672 192.309 1672.63 191.834 1673.21 191.279C1679.29 185.466 1675.91 175.189 1667.56 174.132L1614.38 167.342C1603.82 165.995 1593.09 166.919 1582.9 170.09L1029 342.084C1027.73 342.48 1026.62 343.273 1025.8 344.33C1023.21 347.791 1024.77 352.784 1028.89 354.132L1038.5 357.276C1092.02 374.739 1149.67 375.135 1203.42 358.438Z" fill="#FFBB8A"/>
<path d="M1179.81 345.228L1580.12 220.922C1603.08 213.789 1625.16 204.092 1645.93 192.045L1672.79 176.431C1671.39 175.215 1669.62 174.37 1667.53 174.106L1614.36 167.316C1603.79 165.968 1593.07 166.893 1582.87 170.063L1028.97 342.058C1027.7 342.454 1026.59 343.247 1025.77 344.303C1024.06 346.602 1024.19 349.535 1025.67 351.675C1076.57 362.877 1129.69 360.763 1179.78 345.202L1179.81 345.228Z" fill="#FBFBFB"/>
<path d="M1598.24 183.987L1640.93 170.724L1614.31 167.237L1594.89 173.26C1591.93 174.185 1590.27 177.329 1591.19 180.288C1592.12 183.247 1595.26 184.912 1598.22 183.987H1598.24Z" fill="#FFBB8A"/>
<path d="M1538.52 206.869L1541.91 205.82C1543.15 205.434 1543.84 204.117 1543.45 202.877L1542.4 199.496C1542.02 198.255 1540.7 197.562 1539.46 197.947L1536.08 198.997C1534.84 199.382 1534.15 200.7 1534.53 201.94L1535.58 205.321C1535.97 206.561 1537.28 207.255 1538.52 206.869Z" fill="#FFBB8A"/>
<path d="M1515.11 214.257L1518.49 213.208C1519.73 212.822 1520.42 211.505 1520.04 210.265L1518.99 206.884C1518.6 205.643 1517.29 204.95 1516.05 205.335L1512.66 206.385C1511.42 206.77 1510.73 208.088 1511.12 209.328L1512.17 212.709C1512.55 213.949 1513.87 214.643 1515.11 214.257Z" fill="#FFBB8A"/>
<path d="M1491.69 221.461L1495.07 220.412C1496.31 220.027 1497 218.709 1496.61 217.469L1495.56 214.088C1495.18 212.847 1493.86 212.154 1492.62 212.539L1489.24 213.589C1488 213.974 1487.31 215.292 1487.69 216.532L1488.74 219.913C1489.13 221.153 1490.45 221.847 1491.69 221.461Z" fill="#FFBB8A"/>
<path d="M1468.27 228.77L1471.65 227.72C1472.89 227.335 1473.58 226.018 1473.2 224.777L1472.15 221.396C1471.76 220.156 1470.45 219.463 1469.21 219.848L1465.83 220.898C1464.59 221.283 1463.89 222.6 1464.28 223.841L1465.33 227.222C1465.71 228.462 1467.03 229.155 1468.27 228.77Z" fill="#FFBB8A"/>
<path d="M1444.88 235.939L1448.26 234.889C1449.5 234.504 1450.19 233.186 1449.81 231.946L1448.76 228.565C1448.37 227.325 1447.06 226.632 1445.82 227.017L1442.44 228.067C1441.2 228.452 1440.5 229.769 1440.89 231.009L1441.94 234.39C1442.32 235.631 1443.64 236.324 1444.88 235.939Z" fill="#FFBB8A"/>
<path d="M1421.46 243.195L1424.84 242.145C1426.08 241.76 1426.78 240.442 1426.39 239.202L1425.34 235.821C1424.96 234.581 1423.64 233.887 1422.4 234.273L1419.02 235.322C1417.78 235.707 1417.09 237.025 1417.47 238.265L1418.52 241.646C1418.91 242.887 1420.22 243.58 1421.46 243.195Z" fill="#FFBB8A"/>
<path d="M1398.05 250.583L1401.43 249.533C1402.67 249.148 1403.36 247.83 1402.98 246.59L1401.93 243.209C1401.54 241.969 1400.22 241.275 1398.98 241.66L1395.6 242.71C1394.36 243.095 1393.67 244.413 1394.06 245.653L1395.11 249.034C1395.49 250.274 1396.81 250.968 1398.05 250.583Z" fill="#FFBB8A"/>
<path d="M1374.63 257.865L1378.01 256.815C1379.25 256.43 1379.95 255.112 1379.56 253.872L1378.51 250.491C1378.13 249.251 1376.81 248.558 1375.57 248.943L1372.19 249.993C1370.95 250.378 1370.26 251.695 1370.64 252.935L1371.69 256.316C1372.08 257.557 1373.39 258.25 1374.63 257.865Z" fill="#FFBB8A"/>
<path d="M1351.22 265.121L1354.6 264.071C1355.84 263.686 1356.53 262.368 1356.15 261.128L1355.1 257.747C1354.71 256.507 1353.39 255.813 1352.15 256.199L1348.77 257.248C1347.53 257.633 1346.84 258.951 1347.22 260.191L1348.27 263.572C1348.66 264.813 1349.98 265.506 1351.22 265.121Z" fill="#FFBB8A"/>
<path d="M1327.82 272.264L1331.2 271.214C1332.44 270.829 1333.13 269.512 1332.75 268.271L1331.7 264.89C1331.31 263.65 1330 262.957 1328.76 263.342L1325.37 264.392C1324.13 264.777 1323.44 266.095 1323.83 267.335L1324.88 270.716C1325.26 271.956 1326.58 272.649 1327.82 272.264Z" fill="#FFBB8A"/>
<path d="M1304.4 279.546L1307.78 278.497C1309.02 278.112 1309.72 276.794 1309.33 275.554L1308.28 272.173C1307.9 270.932 1306.58 270.239 1305.34 270.624L1301.96 271.674C1300.72 272.059 1300.03 273.377 1300.41 274.617L1301.46 277.998C1301.85 279.238 1303.16 279.932 1304.4 279.546Z" fill="#FFBB8A"/>
<path d="M1280.99 286.908L1284.37 285.858C1285.61 285.473 1286.3 284.155 1285.92 282.915L1284.87 279.534C1284.48 278.294 1283.16 277.601 1281.92 277.986L1278.54 279.036C1277.3 279.421 1276.61 280.738 1277 281.979L1278.05 285.36C1278.43 286.6 1279.75 287.293 1280.99 286.908Z" fill="#FFBB8A"/>
<path d="M1257.57 294.19L1260.95 293.14C1262.19 292.755 1262.89 291.438 1262.5 290.198L1261.45 286.816C1261.07 285.576 1259.75 284.883 1258.51 285.268L1255.13 286.318C1253.89 286.703 1253.19 288.021 1253.58 289.261L1254.63 292.642C1255.01 293.882 1256.33 294.575 1257.57 294.19Z" fill="#FFBB8A"/>
<path d="M1451.5 251.331L1316.38 293.286L1266.74 401.001C1265.37 403.96 1268.17 407.13 1271.29 406.179L1274.59 405.149C1283.62 402.348 1291.89 397.592 1298.87 391.199L1451.53 251.331H1451.5Z" fill="#FFBB8A"/>
<path d="M1294.64 393.101C1294.35 393.735 1294.27 394.369 1294.3 394.977C1295.85 393.788 1297.39 392.546 1298.84 391.199L1451.5 251.331L1344.7 284.488L1294.64 393.075V393.101Z" fill="#FFBB8A"/>
<path d="M1072.61 335.928L1025.06 350.697L1006.33 391.305L1015.15 388.557L1072.61 335.928Z" fill="#FFBB8A"/>
<path d="M1049.68 219.812C1052.43 214.74 1059.93 211.12 1068.78 211.12C1071.23 211.12 1073.59 211.411 1075.75 211.939C1076.84 208.874 1079.64 206.206 1083.47 204.383C1085.82 192.97 1101.09 184.145 1119.6 184.145C1133.58 184.145 1145.7 189.165 1151.83 196.536C1155.21 195.295 1159.15 194.555 1163.35 194.555C1176.11 194.555 1186.44 201.16 1186.44 209.297C1186.44 209.931 1186.36 210.565 1186.23 211.199C1186.91 211.147 1187.6 211.12 1188.31 211.12C1197.16 211.12 1204.66 214.766 1207.41 219.812H1049.71H1049.68Z" fill="#FBFBFB"/>
<path d="M774.868 301.714C777.616 296.642 785.118 293.022 793.967 293.022C796.424 293.022 798.775 293.313 800.941 293.841C802.025 290.776 804.825 288.108 808.655 286.285C811.006 274.872 826.275 266.047 844.793 266.047C858.767 266.047 870.892 271.067 877.021 278.438C880.402 277.197 884.338 276.457 888.538 276.457C901.298 276.457 911.627 283.062 911.627 291.199C911.627 291.833 911.547 292.467 911.415 293.101C912.102 293.049 912.789 293.022 913.502 293.022C922.352 293.022 929.854 296.668 932.601 301.714H774.895H774.868Z" fill="#FBFBFB"/>
<path d="M1418.43 352.837C1421.17 347.764 1428.68 344.145 1437.53 344.145C1439.98 344.145 1442.33 344.435 1444.5 344.964C1445.58 341.899 1448.38 339.231 1452.21 337.408C1454.56 325.994 1469.83 317.17 1488.35 317.17C1502.33 317.17 1514.45 322.19 1520.58 329.561C1523.96 328.319 1527.9 327.579 1532.1 327.579C1544.86 327.579 1555.18 334.184 1555.18 342.322C1555.18 342.956 1555.11 343.59 1554.97 344.224C1555.66 344.171 1556.35 344.145 1557.06 344.145C1565.91 344.145 1573.41 347.791 1576.16 352.837H1418.45H1418.43Z" fill="#FBFBFB"/>
<path d="M1472.4 177.25C1469.62 172.124 1462.01 168.425 1453.03 168.425C1450.55 168.425 1448.15 168.716 1445.95 169.244C1444.87 166.127 1442.02 163.432 1438.13 161.583C1435.73 149.984 1420.25 141.054 1401.47 141.054C1387.28 141.054 1375 146.153 1368.76 153.63C1365.33 152.362 1361.34 151.622 1357.09 151.622C1344.14 151.622 1333.66 158.333 1333.66 166.576C1333.66 167.236 1333.74 167.87 1333.87 168.505C1333.18 168.452 1332.47 168.425 1331.75 168.425C1322.77 168.425 1315.16 172.124 1312.39 177.25H1472.42H1472.4Z" fill="#FBFBFB"/>
<path d="M1453.35 38.5182C1455.54 34.4759 1461.54 31.5697 1468.59 31.5697C1470.55 31.5697 1472.42 31.8075 1474.17 32.2038C1475.04 29.7467 1477.26 27.6331 1480.32 26.18C1482.2 17.0651 1494.4 10.011 1509.17 10.011C1520.32 10.011 1530.01 14.0268 1534.9 19.8921C1537.59 18.8881 1540.74 18.3069 1544.09 18.3069C1554.26 18.3069 1562.53 23.5909 1562.53 30.0902C1562.53 30.5922 1562.45 31.1206 1562.37 31.5961C1562.93 31.5697 1563.48 31.5433 1564.03 31.5433C1571.11 31.5433 1577.08 34.4495 1579.28 38.4918H1453.35V38.5182Z" fill="#FBFBFB"/>
<path d="M1254.22 20.0243C1255.2 18.2277 1257.84 16.9331 1260.98 16.9331C1261.86 16.9331 1262.68 17.0388 1263.47 17.2238C1263.84 16.1405 1264.84 15.1894 1266.19 14.5553C1267.03 10.5131 1272.42 7.39551 1278.97 7.39551C1283.91 7.39551 1288.22 9.16566 1290.39 11.7812C1291.57 11.3321 1292.97 11.0679 1294.45 11.0679C1298.97 11.0679 1302.62 13.3929 1302.62 16.2991C1302.62 16.5368 1302.59 16.7482 1302.54 16.9596C1302.78 16.9596 1303.01 16.9596 1303.28 16.9596C1306.42 16.9596 1309.06 18.2541 1310.04 20.0507H1254.2L1254.22 20.0243Z" fill="#FBFBFB"/>
<path d="M1773.73 294.634C1771.25 290.037 1764.43 286.734 1756.4 286.734C1754.15 286.734 1752.04 286.998 1750.06 287.474C1749.08 284.674 1746.55 282.269 1743.06 280.631C1740.92 270.248 1727.05 262.243 1710.25 262.243C1697.57 262.243 1686.55 266.787 1680.98 273.498C1677.89 272.362 1674.35 271.701 1670.52 271.701C1658.95 271.701 1649.57 277.699 1649.57 285.096C1649.57 285.677 1649.65 286.259 1649.76 286.814C1649.15 286.761 1648.51 286.761 1647.88 286.761C1639.85 286.761 1633.03 290.063 1630.55 294.66H1773.76L1773.73 294.634Z" fill="#FBFBFB"/>
<path d="M1848.88 597.777H792.25V787.261H1848.88V597.777Z" fill="#FFBB8A"/>
<path d="M1848.88 527.87H792.25V568.821H1848.88V527.87Z" fill="#FFBB8A"/>
<path opacity="0.1" d="M1706.74 -19.5264H776.823V773.1H1706.74V-19.5264Z" fill="#FFBB8A"/>
<g opacity="0.39">
<path d="M764.566 766.574H723.171L1260.64 -60.636H1302.04L764.566 766.574Z" fill="#FBFBFB"/>
<path d="M1445.53 766.574H1404.14L1941.61 -60.636H1983L1445.53 766.574Z" fill="#FBFBFB"/>
<path d="M1369.05 766.574H1213.43L1750.9 -60.636H1906.55L1369.05 766.574Z" fill="#FBFBFB"/>
<path d="M689.754 766.574H534.108L1071.6 -60.636H1227.25L689.754 766.574Z" fill="#FBFBFB"/>
</g>
<path d="M1031.74 -111.098H1009V763.325H1031.74V-111.098Z" fill="#FBFBFB"/>
<path d="M1616.6 -111.098H1593.86V763.325H1616.6V-111.098Z" fill="#FBFBFB"/>
<path d="M1918.73 129.007V105.731L706.846 105.731V129.007L1918.73 129.007Z" fill="#FBFBFB"/>
</g>
<path d="M1229.89 794.263C1343.49 794.263 1435.57 785.285 1435.57 774.21C1435.57 763.135 1343.49 754.157 1229.89 754.157C1116.3 754.157 1024.21 763.135 1024.21 774.21C1024.21 785.285 1116.3 794.263 1229.89 794.263Z" fill="#F5F5F5"/>
<path d="M1314.13 492.652L1241.09 511.093C1241.09 511.093 1259.95 592.995 1267.3 623.008C1274.83 653.734 1270.65 752.598 1270.65 752.598H1291.55L1302.85 622.638L1314.16 492.678L1314.13 492.652Z" fill="#236B44"/>
<path d="M1298.23 359.548C1298.23 359.548 1305.68 385.254 1317.73 428.874C1317.73 428.874 1333.23 434.501 1375.18 437.487L1373.86 451.436C1373.86 451.436 1327.61 459.812 1302.09 449.27C1276.57 438.755 1255.2 345.439 1298.23 359.548Z" fill="#FFA689"/>
<path d="M1338.68 449.455L1360.55 474.792L1395.89 428.768L1381.6 401.186L1338.68 449.455Z" fill="#5EB083"/>
<path d="M1334.85 460.076L1371.96 410.301L1395.89 428.768L1360.55 474.792L1334.85 460.076Z" fill="#5EB083"/>
<path d="M1389.74 438.993C1389.58 438.227 1388.6 437.936 1387.94 438.359C1386.67 439.178 1385.14 441.08 1381.55 441.186C1377.96 441.291 1373.25 438.781 1371.7 440.419C1371.7 440.419 1363.93 450.327 1371.8 460.129C1371.8 460.129 1395.63 466.337 1389.74 438.993Z" fill="#FFA689"/>
<path d="M1283.52 433.92C1283.52 433.92 1302.09 431.172 1317.33 418.042C1317.33 418.042 1311.94 389.059 1304.44 371.569C1296.94 354.079 1285.1 338.782 1265.87 350.169C1246.64 361.556 1252.24 387.659 1283.52 433.92Z" fill="#5EB083"/>
<path d="M1221.47 422.242C1221.47 422.242 1237.32 432.308 1257.42 432.308C1257.42 432.308 1272.26 406.84 1278 388.689C1283.73 370.565 1284.76 351.225 1262.75 347.289C1240.75 343.352 1227.94 366.787 1221.44 422.242H1221.47Z" fill="#5EB083"/>
<path d="M1304.07 500.525C1304.07 500.525 1258.92 485.281 1230.95 510.512C1230.95 510.512 1236.07 534.21 1251.53 562.559C1277.63 610.511 1290.99 626.02 1290.99 626.02C1290.99 626.02 1262.54 651.33 1207.73 714.606C1207.73 714.606 1211.16 727.552 1222.21 731.7C1222.21 731.7 1302.54 655.927 1326.76 635.716C1334.69 629.111 1333.08 624.144 1329.96 609.507C1324.67 584.725 1307.19 511.806 1304.1 500.525H1304.07Z" fill="#236B44"/>
<path d="M1265.63 312.679L1264.66 332.494C1264.66 332.494 1280.22 345.307 1293.03 344.726L1298.95 318.306L1262.68 293.656L1265.63 312.679Z" fill="#FFA689"/>
<path d="M1273.11 309.218C1273.11 309.218 1281.38 324.647 1296.46 329.35L1298.95 318.28L1273.11 309.191V309.218Z" fill="#ED8A6D"/>
<path d="M1241.25 582.348L1204.37 554.342C1202.31 552.757 1201.89 549.825 1203.48 547.737C1205.06 545.677 1207.99 545.254 1210.08 546.839L1246.96 574.844C1249.02 576.43 1249.44 579.362 1247.86 581.449C1246.27 583.51 1243.34 583.933 1241.25 582.348Z" fill="#07150E"/>
<path d="M1210.58 557.46L1129.51 664.25" stroke="#07150E" stroke-width="0.94" stroke-miterlimit="10"/>
<path d="M1236.55 577.249L1155.48 684.012" stroke="#07150E" stroke-width="0.94" stroke-miterlimit="10"/>
<path d="M1233.3 363.062C1233.3 363.062 1193.83 365.043 1187.49 387.315C1181.15 409.587 1182 497.117 1182 497.117C1182 497.117 1190.32 517.011 1217 519.574C1217 519.574 1230.92 522.797 1230.1 493.576C1229.31 464.382 1233.27 363.062 1233.27 363.062H1233.3Z" fill="#050D08"/>
<path d="M1211.08 367.368C1211.08 367.368 1207.12 370.829 1205.01 375.373C1197.27 392.018 1199.65 436.906 1196.37 440.525C1193.62 443.537 1188.97 444.092 1184.38 445.36C1182.42 445.888 1180.12 444.647 1180.23 442.744C1181.97 404.356 1179.01 372.414 1211.08 367.368Z" fill="#18432B"/>
<path d="M1182.37 450.776C1182.37 450.776 1192.99 448.345 1194.84 450.882C1197.48 454.501 1196.45 495.69 1193.49 496.826C1190.56 497.962 1180.2 497.064 1179.62 496.192C1177.43 492.942 1176.06 452.123 1182.37 450.802V450.776Z" fill="#18432B"/>
<path d="M1315.9 263.009C1315.9 263.009 1326.84 316.245 1310.59 322.745C1294.35 329.244 1270.57 312.679 1264.76 295.823C1259.8 281.45 1260.32 247.315 1315.9 263.009Z" fill="#FFA689"/>
<path d="M1299.79 271.358C1299.79 271.358 1304.2 282.666 1295.48 285.334C1288.38 287.5 1286.32 292.732 1286.32 292.732C1286.32 292.732 1284.87 281.371 1277.13 280.948C1268.7 280.499 1269.17 292.52 1276.57 298.438C1276.57 298.438 1276.57 312.705 1265.63 312.705C1265.63 312.705 1240.96 284.383 1251.74 267.289C1250.15 262.084 1257.52 248.187 1276.44 246.417C1295.35 244.647 1300.79 249.059 1315.16 244.594C1328.9 240.341 1337.96 273.286 1299.82 271.384L1299.79 271.358Z" fill="#050D08"/>
<path opacity="0.22" d="M1268.62 496.113L1317.3 622.612L1214.04 721.792" stroke="#FBFBFB" stroke-width="0.25" stroke-miterlimit="10"/>
<path d="M1131.7 774.13C1131.7 780.656 1126.42 785.967 1119.87 785.967C1113.32 785.967 1108.03 780.683 1108.03 774.13C1108.03 767.578 1113.32 762.294 1119.87 762.294C1126.42 762.294 1131.7 767.578 1131.7 774.13Z" fill="#07150E"/>
<path d="M1087.64 753.259C1087.64 759.784 1082.36 765.095 1075.8 765.095C1069.25 765.095 1063.97 759.811 1063.97 753.259C1063.97 746.706 1069.25 741.422 1075.8 741.422C1082.36 741.422 1087.64 746.706 1087.64 753.259Z" fill="#07150E"/>
<path d="M1183.53 661.978C1183.53 661.978 1187.18 714.818 1168.26 743.985C1149.35 773.153 1121.74 768.424 1121.74 768.424L1127.42 759.494C1127.42 759.494 1147.37 767.658 1159.18 736.508C1171.01 705.359 1168.63 673.021 1168.63 673.021L1183.5 661.978H1183.53Z" fill="#07150E"/>
<path d="M1161.66 647.05C1161.66 647.05 1173.49 648.186 1182.87 659.441C1190.11 668.107 1135.93 751.911 1123.75 770.511C1122.3 772.73 1119.6 773.761 1117.04 773.074C1108.32 770.749 1088.17 764.487 1073.53 753.444C1073.53 753.444 1129.46 655.293 1161.66 647.05Z" fill="#050D08"/>
<path d="M1165.86 647.975C1165.86 647.975 1121.37 621.212 1097.49 643.431C1081.64 658.173 1051.11 699.705 1039.27 716.086C1036.42 720.049 1036.87 725.491 1040.35 728.926C1047.99 736.403 1064 748.239 1075.28 754.395C1076.94 755.319 1079.03 754.765 1080.08 753.179C1089.75 738.516 1136.01 669.666 1165.89 647.949L1165.86 647.975Z" fill="#18432B"/>
<path d="M1067.35 681.449C1065.61 680.075 1062.99 680.815 1061.65 682.585C1055.99 690.009 1041.86 708.582 1039.77 712.096C1035.68 718.965 1052.43 733.496 1072.9 744.302C1079.29 747.684 1087.11 733.021 1095.35 721.792C1100.79 714.368 1105.5 707.843 1104.89 705.438C1104.2 702.849 1093.56 699.52 1083.81 693.497C1077.44 689.534 1072 685.121 1067.35 681.475V681.449Z" fill="#236B44"/>
<path d="M1165.86 647.975C1165.86 647.975 1145.76 633.735 1117.25 633.285C1093.03 632.916 1066.43 674.844 1066.43 674.844C1062.99 679.256 1104.49 704.408 1109.12 698.675C1127.45 676.086 1145.39 658.939 1154.53 650.67C1155.16 650.141 1160.07 646.178 1165.89 647.975H1165.86Z" fill="#236B44"/>
<path d="M1090.47 748.978L1115.24 711.594C1116.14 710.247 1117.91 709.745 1119.37 710.458L1143.62 721.951C1145.15 722.691 1145.68 724.593 1144.75 726.02L1120.74 762.426C1119.37 764.513 1116.67 765.359 1114.35 764.381L1092.37 755.214C1089.91 754.183 1089.01 751.198 1090.47 748.978Z" fill="#103F26"/>
<path d="M1259.14 335.004C1259.14 335.004 1234.89 339.389 1230.95 375.664C1227.01 411.939 1230.95 514.607 1230.95 514.607C1230.95 514.607 1253.67 523.405 1279.42 510.855C1296.01 502.771 1306.61 502.321 1311.1 501.318C1312.92 500.895 1314.19 499.336 1314.21 497.46C1314.27 493.497 1314.32 485.888 1314.29 474.422C1314.21 442.375 1310.75 387.844 1296.96 350.433C1296.96 350.433 1273.56 336.14 1259.16 335.004H1259.14Z" fill="#5EB083"/>
<path d="M1275.49 401.265C1255.25 400.261 1240.27 408.372 1229.21 420.816C1228.99 463.616 1230.95 514.607 1230.95 514.607C1230.95 514.607 1244.47 519.811 1262.44 516.456C1249.57 496.773 1249.47 478.728 1260.59 456.588C1269.49 438.887 1275.49 401.265 1275.49 401.265Z" fill="#5EB083"/>
<path d="M1230.95 375.664C1230.95 375.664 1250.18 344.356 1264.26 349.64C1281.56 356.14 1285.08 389.587 1259.14 424.62L1245.32 439.23L1241.78 452.229C1241.78 452.229 1276.97 421.186 1285.23 391.014C1293.5 360.842 1282.65 348.874 1267.48 343.696C1248.86 337.328 1239.93 348.689 1228.57 364.383L1230.92 375.611L1230.95 375.664Z" fill="#050D08"/>
<path d="M1227.78 408.002C1227.78 408.002 1221.86 433.629 1219.91 465.967C1218.24 493.154 1217.98 526.628 1217.95 536.588C1217.95 538.305 1217.29 539.943 1216.08 541.132C1212.85 544.303 1206.65 552.149 1207.7 564.725C1208.07 569.138 1210 575.241 1220.96 578.754C1222.47 579.23 1226.43 580.895 1226.43 573.206C1226.43 565.518 1229.55 560.34 1232.69 557.777C1235.84 555.214 1239.06 561.978 1239.06 567.473C1239.06 572.968 1242.76 569.481 1243.5 565.571C1244.24 561.661 1243.66 551.146 1235.36 540.208C1235.36 540.208 1235.2 538.279 1236.26 525.122C1237.29 511.965 1239.51 467.421 1244.24 456.034C1248.97 444.647 1262.57 412.176 1262.57 412.176L1227.83 407.976L1227.78 408.002Z" fill="#FFA689"/>
<path d="M1221.47 424.779C1221.47 424.779 1237.32 432.308 1257.42 432.308C1257.42 432.308 1272.26 406.84 1278 388.689C1283.73 370.565 1284.76 351.225 1262.75 347.289C1240.75 343.352 1227.94 369.323 1221.44 424.779H1221.47Z" fill="#5EB083"/>
<path d="M1271.05 750.432C1271.05 750.432 1265.24 758.886 1268.09 771.118C1268.51 772.941 1270.07 774.183 1271.79 774.183H1334.55C1335.85 774.183 1336.88 772.968 1336.72 771.594C1336.3 768.027 1333.37 761.819 1318.44 759.996C1314.35 759.494 1310.44 757.961 1307.19 755.425C1301.82 751.224 1293.64 745.465 1290.81 747.05C1290.81 747.05 1281.8 752.492 1271.02 750.432H1271.05Z" fill="#050D08"/>
<path d="M1264.87 328.161C1262.62 328.24 1259.11 335.004 1259.11 335.004C1259.11 335.004 1265.77 340.129 1281.91 346.047C1289.38 348.795 1293.13 352.652 1294.85 355.083C1295.38 355.823 1296.51 355.532 1296.62 354.634C1297.1 351.041 1297.31 344.726 1293.79 341.08C1293.79 341.08 1271.55 335.004 1264.81 328.161H1264.87Z" fill="#236B44"/>
<path d="M1208.05 714.791C1208.05 714.791 1197.88 716.086 1190.61 726.337C1189.53 727.842 1189.63 729.85 1190.8 731.145L1232.53 778.041C1233.41 779.018 1234.99 778.965 1235.92 777.935C1238.29 775.24 1240.96 768.926 1232.45 756.561C1230.1 753.179 1228.65 749.243 1228.39 745.121C1227.96 738.305 1226.83 728.371 1223.74 727.314C1223.74 727.314 1213.7 724.197 1208.07 714.791H1208.05Z" fill="#050D08"/>
<path d="M1233.93 564.963L1243.81 572.467L1242.99 576.852L1231.48 571.093L1233.93 564.963Z" fill="#07150E"/>
<path d="M964.142 655.584C964.142 658.411 948.689 660.709 929.616 660.709C910.543 660.709 895.09 658.411 895.09 655.584C895.09 652.757 910.543 650.458 929.616 650.458C948.689 650.458 964.142 652.757 964.142 655.584Z" fill="#103F26"/>
<path d="M929.616 779.943C965.448 779.943 994.495 776.595 994.495 772.466C994.495 768.337 965.448 764.989 929.616 764.989C893.784 764.989 864.737 768.337 864.737 772.466C864.737 776.595 893.784 779.943 929.616 779.943Z" fill="#F5F5F5"/>
<path d="M938.017 664.593C938.017 664.593 930.858 643.034 939.998 633.285C949.138 623.536 934.503 607.077 956.165 597.803C977.826 588.504 977.087 566.786 995.922 566.707C1014.78 566.601 1029.6 557.83 1035.76 566.152C1041.91 574.474 1013.33 578.517 1013.28 592.651C1013.22 606.786 1010.42 608.134 1002.71 616.958C998.378 621.898 1000.39 632.81 990.77 643.404C983.242 651.7 963.403 648.9 938.017 664.593Z" fill="#236B44"/>
<path d="M938.017 664.593C938.017 664.593 947.051 642.955 967.841 631.515C988.631 620.049 981.287 573.418 1035.78 566.152" stroke="#FBFBFB" stroke-width="0.4" stroke-linecap="round" stroke-linejoin="round"/>
<path d="M942.27 674.844C942.27 674.844 938.466 644.012 945.44 619.23C952.414 594.448 941.002 586.522 921.48 580.102C901.932 573.708 914.215 553.286 908.404 534.237C902.592 515.188 887.957 544.778 883.097 518.86C878.236 492.942 870.839 479.547 864.922 480.657C859.005 481.767 857.024 487.5 852.823 517.143C848.597 546.786 828.018 544.593 845.876 568.107C863.733 591.595 868.277 584.963 858.371 605.359C837.185 648.926 913.027 636.033 942.296 674.844H942.27Z" fill="#5EB083"/>
<path d="M942.27 674.844C942.27 674.844 932.548 622.982 904.52 597.381C876.493 571.78 857.922 544.382 864.922 480.684" stroke="#FBFBFB" stroke-width="0.48" stroke-linecap="round" stroke-linejoin="round"/>
<path d="M932.522 670.617C932.522 670.617 902.09 589.983 881.142 595.056C860.194 600.155 858.08 601.211 839.007 585.941C819.908 570.67 806.04 587.341 820.648 599.573C835.256 611.806 835.758 612.916 821.837 626.363C807.915 639.838 841.121 654.897 870.337 650.379C899.554 645.835 927.952 663.933 932.522 670.617Z" fill="#236B44"/>
<path d="M932.522 670.617C932.522 670.617 918.257 640.63 879.821 632.863C841.385 625.095 859.348 599.758 814.572 588.028" stroke="#FBFBFB" stroke-width="0.44" stroke-linecap="round" stroke-linejoin="round"/>
<path d="M929.616 660.736C913.634 660.736 900.241 659.124 896.279 656.931C900.188 662.004 912.736 684.593 920.185 771.488C920.185 772.757 924.412 773.761 929.616 773.761C934.82 773.761 939.047 772.73 939.047 771.488C946.496 684.593 959.044 662.004 962.954 656.931C959.018 659.124 945.598 660.736 929.616 660.736Z" fill="#FFBB8A"/>
<circle cx="145.5" cy="333.5" r="132.5" fill="#F5F5F5"/>
<circle cx="837.5" cy="823.5" r="20.5" fill="#FCFCFC"/>
<circle cx="1330.5" cy="293.5" r="79.5" fill="#CACACA" fill-opacity="0.06"/>
<circle cx="673" cy="337" r="4" fill="#F5F5F5"/>
<circle cx="4" cy="648" r="4" fill="#F5F5F5"/>
<circle cx="1526" cy="784" r="4" fill="#F5F5F5"/>
</svg>
