<svg width="20" height="14" viewBox="0 0 20 14" fill="none" xmlns="http://www.w3.org/2000/svg">
<path fill-rule="evenodd" clip-rule="evenodd" d="M5.65182 0.0634566C5.42606 0.146358 5.25505 0.2968 5.1306 0.521895C5.03531 0.694264 5.01722 0.771185 5.01784 1.00085C5.01898 1.39656 5.20389 1.69893 5.56376 1.8935L5.7201 1.978H12.5015H19.2829L19.4393 1.8935C19.7991 1.69893 19.984 1.39656 19.9852 1.00085C19.9858 0.771185 19.9677 0.694264 19.8724 0.521895C19.7446 0.290741 19.5758 0.145459 19.3372 0.0612678C19.1017 -0.0218288 5.87832 -0.0197182 5.65182 0.0634566ZM0.834361 6.02046C0.597774 6.06119 0.396911 6.17278 0.248893 6.3457C-0.181677 6.84873 -0.0370593 7.57886 0.554936 7.89107L0.756189 7.99723H10H19.2438L19.4451 7.89107C20.0372 7.57878 20.1817 6.84873 19.7509 6.34546C19.6774 6.25959 19.5333 6.14761 19.4305 6.0966L19.2438 6.00385L10.1173 5.99869C5.09766 5.99584 0.92035 6.00565 0.834361 6.02046ZM9.66328 12.0664C9.43865 12.1466 9.20433 12.3592 9.10287 12.5751C8.99995 12.7941 8.98565 13.1677 9.07226 13.375C9.16095 13.5873 9.37232 13.8039 9.58933 13.905L9.78503 13.9961L14.4802 13.9965C19.5782 13.997 19.3362 14.007 19.629 13.7836C19.7004 13.7291 19.8099 13.5921 19.8724 13.4792C19.9677 13.3068 19.9858 13.2299 19.9852 13.0002C19.984 12.6045 19.7991 12.3022 19.4393 12.1076L19.2829 12.0231L14.5535 12.0161C10.4829 12.01 9.80172 12.0171 9.66328 12.0664Z" fill="#32333D"/>
</svg>
