<svg width="16" height="18" viewBox="0 0 16 18" fill="none" xmlns="http://www.w3.org/2000/svg">
<path fill-rule="evenodd" clip-rule="evenodd" d="M1.12151 0.0515927C0.745232 0.155393 0.378027 0.441372 0.19919 0.770003C-0.0108727 1.15598 9.81266e-05 0.784174 9.81266e-05 7.50789C9.81266e-05 12.9584 0.00635703 13.6882 0.0546707 13.8738C0.155131 14.2596 0.393253 14.5768 0.740696 14.7879C1.12081 15.0188 1.02604 15.0138 5.0687 15.0145L8.71325 15.0151L8.75288 15.2429C8.94944 16.3715 9.68846 17.3053 10.7341 17.7463C11.2962 17.9834 11.2465 17.9788 13.4134 17.994C15.5049 18.0087 15.4963 18.0093 15.5733 17.8402C15.6011 17.7791 15.6124 16.6891 15.6124 14.045C15.6124 9.9812 15.6164 10.069 15.4032 9.55904C15.2062 9.08782 15.0475 8.90768 13.2483 7.11231C12.2938 6.15982 11.4938 5.38054 11.4704 5.38054C11.4377 5.38054 11.428 4.80226 11.428 2.8477C11.428 0.143227 11.4271 0.129443 11.2575 0.0386176C11.1468 -0.0206316 1.3379 -0.00807851 1.12151 0.0515927ZM10.7951 6.23205V11.8657L9.6259 10.704C8.56075 9.64568 8.43642 9.53337 8.22818 9.44153C7.93573 9.31255 7.49697 9.28101 7.19925 9.36758C6.9376 9.44364 6.58946 9.68302 6.42644 9.89896C6.06483 10.378 6.022 11.0465 6.31951 11.5692C6.36966 11.6573 6.88191 12.2028 7.47524 12.7999C8.55829 13.8898 8.68259 14.0425 8.68452 14.2855L8.6853 14.3822L4.98442 14.3814C1.47623 14.3807 1.27619 14.3773 1.14211 14.3164C0.956947 14.2323 0.780184 14.0524 0.688866 13.8552L0.615446 13.6965V7.50789V1.31925L0.695899 1.14473C0.740169 1.04874 0.803461 0.939874 0.83655 0.902813C0.930575 0.797571 1.14802 0.670598 1.29258 0.63649C1.36498 0.619436 3.53265 0.603894 6.10963 0.601925L10.7951 0.598409V6.23205ZM1.86351 1.22902C1.57265 1.31752 1.33358 1.55311 1.25035 1.8334C1.17376 2.09128 1.17148 3.29789 1.24732 3.44452C1.3405 3.62473 1.58158 3.6499 1.7275 3.49469C1.80859 3.40844 1.81126 3.38664 1.82047 2.7318C1.82568 2.36101 1.83813 2.02102 1.84808 1.97623C1.88159 1.8258 2.04277 1.79394 2.77071 1.79394C3.4138 1.79394 3.43592 1.79155 3.50502 1.71483C3.54419 1.67133 3.58635 1.60712 3.59869 1.57221C3.62893 1.4868 3.53933 1.28127 3.45132 1.23415C3.36989 1.19058 2.00445 1.18615 1.86351 1.22902ZM5.08112 2.16241C3.99392 2.40163 3.11963 3.22366 2.81104 4.29679C2.70461 4.66692 2.68091 5.27935 2.75812 5.66389C3.06713 7.20254 4.45613 8.23798 6.00438 8.08382C7.54005 7.93093 8.70003 6.64661 8.70003 5.09924C8.70003 3.67902 7.7037 2.45004 6.32208 2.16611C5.99619 2.09912 5.37712 2.09729 5.08112 2.16241ZM5.41516 3.79822V4.78278H4.97078H4.52639L4.54931 4.55897C4.60937 3.97266 4.86803 3.32859 5.17289 3.00625C5.27307 2.90034 5.36857 2.81366 5.3851 2.81366C5.40162 2.81366 5.41516 3.25671 5.41516 3.79822ZM6.33583 3.10836C6.61368 3.48917 6.77913 3.95958 6.8722 4.63334L6.89284 4.78278H6.45289H6.01293V3.79583V2.80888L6.12155 2.8862C6.18129 2.92875 6.2777 3.02872 6.33583 3.10836ZM4.21878 3.40264C4.10197 3.68134 3.98309 4.11866 3.95482 4.37366C3.94381 4.47296 3.92697 4.60566 3.9174 4.6685L3.89996 4.78278H3.61866H3.33736L3.36106 4.65092C3.4393 4.2156 3.66828 3.78672 4.00865 3.4378C4.15489 3.2879 4.28436 3.16529 4.29642 3.16529C4.30845 3.16529 4.27353 3.27208 4.21878 3.40264ZM7.51835 3.54438C7.77508 3.85117 7.94206 4.18589 8.03303 4.57595L8.08131 4.78278H7.79058H7.49986L7.47718 4.5385C7.4417 4.15709 7.28322 3.55282 7.15203 3.29891C7.12506 3.24666 7.10297 3.19391 7.10297 3.18168C7.10297 3.13779 7.38217 3.38154 7.51835 3.54438ZM3.91916 5.58273C3.96621 5.96977 4.08105 6.45016 4.19343 6.73002C4.3338 7.07964 4.30884 7.08168 3.98917 6.74651C3.65643 6.39763 3.43778 5.98285 3.35716 5.54757L3.33272 5.41571H3.61578H3.89884L3.91916 5.58273ZM5.41516 6.40026C5.41516 7.00788 5.40219 7.38482 5.3813 7.38482C5.32089 7.38482 5.06118 7.09114 4.94025 6.88611C4.73726 6.54197 4.53609 5.86066 4.53609 5.51733V5.41571H4.97563H5.41516V6.40026ZM6.87185 5.56515C6.79414 6.11872 6.71168 6.41225 6.53218 6.77443C6.41927 7.00225 6.19314 7.29083 6.08016 7.35131C6.01469 7.38633 6.01293 7.36126 6.01293 6.40149V5.41571H6.45289H6.89284L6.87185 5.56515ZM8.05022 5.56673C7.9671 6.01171 7.66874 6.5431 7.32622 6.85611C7.21792 6.9551 7.12319 7.02996 7.1157 7.0225C7.10825 7.01501 7.13501 6.9346 7.17516 6.84377C7.30326 6.55417 7.42088 6.11179 7.46367 5.75854L7.5052 5.41571H7.79185H8.07846L8.05022 5.56673ZM14.4628 9.20495C14.6797 9.45658 14.8392 9.74502 14.9351 10.0588C14.9879 10.2313 14.9949 10.6103 15.0056 13.8284L15.0174 17.4062H13.4943C12.6388 17.4062 11.8418 17.39 11.6761 17.3692C11.0495 17.2906 10.5728 17.0518 10.1083 16.5835C9.86933 16.3426 9.75498 16.1939 9.64594 15.9821C9.41151 15.527 9.35202 15.2848 9.3177 14.6459C9.27016 13.7617 9.23869 13.7028 8.31342 12.7654L7.59789 12.0405L8.22962 11.4095L8.86132 10.7786L10.3644 12.279C11.2342 13.1473 11.8972 13.7822 11.9379 13.786C12.1528 13.806 12.3071 13.6861 12.3071 13.499C12.3071 13.4017 12.2465 13.325 11.8675 12.9419L11.428 12.4977V9.34033V6.18299L12.8433 7.57551C13.6217 8.34142 14.3505 9.07464 14.4628 9.20495ZM8.04006 10.0566C8.1555 10.1143 8.28789 10.2018 8.33423 10.2512L8.41848 10.3408L7.78812 10.972L7.15772 11.6031L7.03813 11.4894C6.74808 11.2138 6.671 10.7896 6.84804 10.4432C7.07931 9.99091 7.58217 9.82779 8.04006 10.0566ZM1.37215 11.4385C1.21458 11.5182 1.19672 11.6086 1.19616 12.3276C1.19542 13.262 1.26849 13.4634 1.69297 13.6971C1.88022 13.8002 1.88528 13.8009 2.56396 13.814C3.37115 13.8297 3.49623 13.8061 3.57232 13.624C3.61585 13.5198 3.61599 13.4868 3.57337 13.3848C3.5002 13.2097 3.39155 13.1867 2.63818 13.1867C1.76995 13.1867 1.82863 13.2442 1.82835 12.3933C1.82814 11.6708 1.80068 11.5226 1.65285 11.4462C1.52943 11.3823 1.48555 11.3811 1.37215 11.4385Z" fill="#32333D"/>
</svg>
