<svg width="13" height="16" viewBox="0 0 13 16" fill="none" xmlns="http://www.w3.org/2000/svg">
<path fill-rule="evenodd" clip-rule="evenodd" d="M0.992758 0.0591744C0.661195 0.165153 0.303693 0.459462 0.157304 0.746927C-0.0094622 1.0744 0.000101246 0.632261 0.000101246 8.00212C0.000101246 14.5928 0.00197644 14.8128 0.0593256 14.9971C0.201308 15.4534 0.570968 15.8167 1.02932 15.9505C1.18106 15.9948 1.71792 16 6.09443 16C10.4709 16 11.0078 15.9948 11.1595 15.9505C11.6179 15.8167 11.9876 15.4534 12.1295 14.9971C12.1867 14.8135 12.1888 14.62 12.1888 9.46738C12.1888 5.82878 12.1784 4.0999 12.1561 4.03996C12.1124 3.92232 8.2963 0.0990219 8.16594 0.0422665C8.08165 0.00557556 7.50809 -0.00123759 4.61873 0.000168797C1.36454 0.0017627 1.16209 0.00504426 0.992758 0.0591744ZM7.50081 2.21466C7.50081 3.38174 7.50597 3.50985 7.56004 3.68349C7.70202 4.13978 8.07168 4.5031 8.53004 4.63689C8.67271 4.67852 8.9032 4.68643 9.97577 4.68643H11.2517L11.2436 9.71587C11.2355 14.7406 11.2355 14.7454 11.1711 14.8316C11.1357 14.8791 11.0678 14.9469 11.0204 14.9823C10.9341 15.0468 10.9337 15.0468 6.09443 15.0468C1.25519 15.0468 1.25478 15.0468 1.16849 14.9823C1.12102 14.9469 1.0532 14.8791 1.01776 14.8316L0.953317 14.7453L0.944409 8.0829C0.939503 4.41859 0.943566 1.37521 0.953473 1.31983C0.975819 1.19453 1.10721 1.03483 1.23303 0.980043C1.3101 0.946477 1.91931 0.938289 4.41458 0.937289L7.50081 0.93607V2.21466ZM9.7434 3.74227C9.29208 3.74727 8.87754 3.74321 8.82216 3.73324C8.69349 3.71005 8.53572 3.57748 8.48103 3.44659C8.4485 3.36871 8.4384 3.13894 8.4384 2.47647V1.60835L9.50119 2.6708L10.564 3.73321L9.7434 3.74227ZM3.06511 6.67886C2.89413 6.76603 2.82849 6.88088 2.82849 7.0929C2.82849 7.30492 2.89413 7.41978 3.06511 7.50694C3.16487 7.55782 3.37411 7.5616 6.09443 7.5616C8.81475 7.5616 9.02399 7.55782 9.12375 7.50694C9.29473 7.41978 9.36036 7.30492 9.36036 7.0929C9.36036 6.88088 9.29473 6.76603 9.12375 6.67886C9.02399 6.62799 8.81475 6.6242 6.09443 6.6242C3.37411 6.6242 3.16487 6.62799 3.06511 6.67886ZM3.06511 8.55404C2.89413 8.64121 2.82849 8.75606 2.82849 8.96808C2.82849 9.1801 2.89413 9.29496 3.06511 9.38212C3.16487 9.433 3.37411 9.43678 6.09443 9.43678C8.81475 9.43678 9.02399 9.433 9.12375 9.38212C9.29473 9.29496 9.36036 9.1801 9.36036 8.96808C9.36036 8.75606 9.29473 8.64121 9.12375 8.55404C9.02399 8.50316 8.81475 8.49938 6.09443 8.49938C3.37411 8.49938 3.16487 8.50316 3.06511 8.55404ZM3.06511 10.4292C2.89413 10.5164 2.82849 10.6312 2.82849 10.8433C2.82849 11.0553 2.89413 11.1701 3.06511 11.2573C3.16487 11.3082 3.37411 11.312 6.09443 11.312C8.81475 11.312 9.02399 11.3082 9.12375 11.2573C9.29473 11.1701 9.36036 11.0553 9.36036 10.8433C9.36036 10.6312 9.29473 10.5164 9.12375 10.4292C9.02399 10.3783 8.81475 10.3746 6.09443 10.3746C3.37411 10.3746 3.16487 10.3783 3.06511 10.4292ZM3.06511 12.3044C2.89413 12.3916 2.82849 12.5064 2.82849 12.7184C2.82849 12.9305 2.89413 13.0453 3.06511 13.1325C3.16381 13.1828 3.32914 13.1871 5.15684 13.1871C6.98455 13.1871 7.14987 13.1828 7.24857 13.1325C7.41955 13.0453 7.48519 12.9305 7.48519 12.7184C7.48519 12.5064 7.41955 12.3916 7.24857 12.3044C7.14987 12.2541 6.98455 12.2497 5.15684 12.2497C3.32914 12.2497 3.16381 12.2541 3.06511 12.3044Z" fill="#82859E"/>
</svg>
