<svg width="16" height="16" viewBox="0 0 16 16" fill="none" xmlns="http://www.w3.org/2000/svg">
<path fill-rule="evenodd" clip-rule="evenodd" d="M14.9529 0.213836C14.2944 0.559606 12.7326 1.37533 6.38832 4.68713C3.08753 6.41019 0.327091 7.85435 0.253979 7.89643C-0.0560324 8.07475 -0.0889778 8.52145 0.192371 8.7315C0.2366 8.76454 1.51516 9.21615 3.03361 9.73508L5.79443 10.6786L5.81006 12.8174C5.82425 14.7602 5.8306 14.9652 5.87926 15.0541C6.0182 15.3079 6.29421 15.4056 6.53823 15.2875C6.66045 15.2283 6.8053 15.0439 7.90641 13.5456C8.58376 12.6239 9.15289 11.864 9.17121 11.857C9.18949 11.85 10.1955 12.1832 11.4066 12.5974C13.3581 13.2648 13.6239 13.3483 13.7415 13.3309C13.8887 13.3093 14.0396 13.1992 14.1108 13.0615C14.1566 12.973 16 0.689106 16 0.472616C16 0.224026 15.7599 -0.000965864 15.4956 3.11845e-06C15.3882 0.000378208 15.273 0.0457641 14.9529 0.213836ZM14.0144 7.0676C13.6086 9.80751 13.2669 12.0727 13.2551 12.1013C13.2366 12.1464 12.8334 12.0168 10.2413 11.1324C8.59541 10.5708 7.25212 10.1028 7.25619 10.0924C7.27038 10.0559 14.7317 2.06528 14.7419 2.07556C14.7476 2.08128 14.4203 4.3277 14.0144 7.0676ZM9.62657 6.0593L6.18618 9.74878L5.75589 9.59852C5.51921 9.51588 4.52691 9.17589 3.55074 8.84303L1.77594 8.23776L1.94098 8.15277C2.03178 8.10604 4.56757 6.7815 7.57611 5.20938C10.5846 3.63725 13.0509 2.35522 13.0565 2.36038C13.0623 2.36557 11.5188 4.03006 9.62657 6.0593ZM8.14865 11.4876C8.16062 11.4978 6.87456 13.2527 6.85515 13.2527C6.84768 13.2527 6.84156 12.7537 6.84156 12.1438V11.0349L7.49015 11.257C7.84686 11.3792 8.14321 11.483 8.14865 11.4876Z" fill="#82859E"/>
</svg>
