<svg width="16" height="16" viewBox="0 0 16 16" fill="none" xmlns="http://www.w3.org/2000/svg">
<path fill-rule="evenodd" clip-rule="evenodd" d="M10.5539 0.0374503C10.1739 0.177338 9.9511 0.477871 9.89121 0.931515C9.87874 1.02608 9.8582 1.12242 9.84557 1.14561C9.83297 1.16881 9.72994 1.22689 9.61662 1.27472L9.41062 1.36162L9.16635 1.19801C8.86782 0.998068 8.76798 0.962682 8.50321 0.963088C8.19802 0.963526 8.02634 1.05574 7.67307 1.40904C7.30583 1.77625 7.20789 1.95428 7.20492 2.26006C7.20239 2.51646 7.23837 2.61658 7.44303 2.92293C7.5258 3.04681 7.59351 3.16154 7.59351 3.17792C7.59351 3.19426 7.5534 3.29708 7.50436 3.40636L7.4152 3.60505L7.12233 3.66044C6.71161 3.73806 6.47716 3.89314 6.3247 4.18792C6.18838 4.45157 6.19647 5.30356 6.33792 5.57771C6.47422 5.84186 6.75206 6.02898 7.09504 6.08762C7.20586 6.1066 7.32583 6.12848 7.36162 6.13629C7.40811 6.14642 7.452 6.21332 7.51527 6.37052L7.60386 6.59056L7.45916 6.80238C7.25331 7.10363 7.20773 7.22583 7.20617 7.48047C7.20426 7.79548 7.28419 7.94171 7.67157 8.33171C8.01014 8.67257 8.14975 8.75831 8.42543 8.79479C8.6491 8.82437 8.8737 8.75165 9.16598 8.55503L9.40703 8.39288L9.62634 8.48116C9.78296 8.54421 9.84973 8.58807 9.85986 8.63452C9.86767 8.67032 9.88955 8.79017 9.90846 8.90083C9.95098 9.14937 10.0518 9.35156 10.2088 9.50302C10.3945 9.68211 10.5768 9.7476 10.9469 9.7682C11.8385 9.81777 12.2322 9.55369 12.3471 8.82899L12.386 8.58323L12.5872 8.49295C12.6979 8.44328 12.8038 8.40264 12.8225 8.40264C12.8412 8.40264 12.9559 8.4705 13.0775 8.55347C13.3751 8.75659 13.4781 8.79376 13.7361 8.79123C14.0419 8.78826 14.2199 8.69032 14.5871 8.32308C14.9404 7.96981 15.0326 7.79813 15.0331 7.49294C15.0335 7.22817 14.9981 7.12833 14.7981 6.82979L14.6345 6.58553L14.7223 6.37652C14.8191 6.14592 14.8083 6.15283 15.197 6.07268C15.4919 6.01188 15.6963 5.88418 15.8379 5.6723C15.9865 5.45001 16.0092 5.325 15.9973 4.79437C15.9872 4.33969 15.9836 4.31734 15.8939 4.15554C15.727 3.85407 15.4467 3.69164 14.9964 3.63537L14.8196 3.6133L14.727 3.38589L14.6343 3.15847L14.7748 2.95935C14.9882 2.65691 15.0319 2.54281 15.0327 2.2861C15.0337 1.95412 14.9655 1.82455 14.5873 1.44027C14.196 1.04258 14.0493 0.962463 13.7146 0.963463C13.4555 0.964244 13.3496 1.00423 13.0335 1.22067L12.831 1.35924L12.6066 1.26562L12.3823 1.17197L12.3605 0.997443C12.3045 0.54955 12.1415 0.268899 11.8406 0.102221C11.6765 0.0113482 11.6622 0.00919128 11.1728 0.00156386C10.8055 -0.00415671 10.6411 0.00537757 10.5539 0.0374503ZM11.4679 0.851115C11.4883 0.875685 11.5322 1.04802 11.5655 1.23405C11.6619 1.77297 11.6882 1.80939 12.0793 1.94721C12.2169 1.99567 12.424 2.08235 12.5396 2.13987C12.8641 2.30126 12.9324 2.29023 13.3433 2.00998C13.5324 1.88104 13.7055 1.77553 13.728 1.77553C13.7803 1.77553 14.2206 2.21724 14.2206 2.26969C14.2206 2.29135 14.1151 2.46378 13.9862 2.65284C13.7094 3.0586 13.6957 3.13553 13.8464 3.43418C13.8985 3.53741 13.9849 3.74447 14.0384 3.89439C14.1861 4.30827 14.2181 4.33238 14.7491 4.42934C14.9443 4.46501 15.1232 4.51018 15.1468 4.52975C15.2082 4.58074 15.2072 5.16083 15.1456 5.22247C15.1213 5.24673 14.949 5.29131 14.7627 5.32153C14.2332 5.40737 14.1846 5.44192 14.0522 5.82601C14.0112 5.94508 13.9268 6.14761 13.8647 6.27609C13.6928 6.63148 13.7022 6.69541 13.9862 7.09819C14.1151 7.28112 14.2206 7.44937 14.2206 7.47203C14.2206 7.52958 13.7766 7.965 13.7179 7.965C13.6915 7.965 13.5257 7.86506 13.3494 7.74296C12.9302 7.45255 12.8884 7.44711 12.4839 7.63008C12.3129 7.70739 12.1 7.79416 12.0108 7.82286C11.8151 7.88579 11.7089 7.9645 11.6622 8.08116C11.6431 8.12902 11.5993 8.32733 11.5648 8.52183C11.5304 8.71633 11.4941 8.88864 11.4842 8.90477C11.4742 8.92086 11.3118 8.93406 11.1234 8.93406C10.7176 8.93406 10.7521 8.97126 10.6593 8.4339C10.6018 8.10107 10.5893 8.06719 10.4915 7.97706C10.4305 7.92086 10.2945 7.84962 10.1697 7.80854C10.0509 7.76937 9.84491 7.68306 9.71206 7.61673C9.3572 7.43952 9.29699 7.45049 8.84391 7.77472C8.69777 7.87931 8.55041 7.9649 8.51646 7.96494C8.43412 7.96503 8.03112 7.56337 8.03121 7.48131C8.03124 7.44646 8.11683 7.29838 8.22143 7.15224C8.54569 6.69916 8.55663 6.63895 8.37939 6.28409C8.31305 6.15123 8.23393 5.96514 8.20361 5.87058C8.12171 5.61525 8.03253 5.47186 7.92443 5.42169C7.87138 5.39709 7.68026 5.35273 7.49973 5.32313C7.31921 5.29356 7.1469 5.25642 7.1168 5.24063C7.06978 5.21597 7.06209 5.16392 7.06209 4.87102C7.06209 4.68352 7.07528 4.52194 7.09138 4.512C7.10751 4.50202 7.27982 4.46573 7.47432 4.43131C8.02162 4.33447 8.04981 4.31475 8.18748 3.93247C8.22774 3.82071 8.31452 3.61127 8.38035 3.46701C8.44619 3.32277 8.50005 3.17098 8.50005 3.12971C8.50005 3.0319 8.41912 2.87963 8.20514 2.57491C8.10946 2.43859 8.03115 2.30461 8.03115 2.27716C8.03115 2.21664 8.46848 1.77553 8.52846 1.77553C8.55191 1.77553 8.68811 1.85925 8.83119 1.96159C9.2983 2.29573 9.35923 2.30667 9.73647 2.12439C9.87311 2.05837 10.0623 1.97913 10.1568 1.94824C10.544 1.82183 10.5747 1.78035 10.6721 1.25277C10.7136 1.0283 10.7625 0.849521 10.7867 0.834203C10.8099 0.81948 10.9643 0.807226 11.1299 0.806945C11.353 0.806601 11.4404 0.818011 11.4679 0.851115ZM10.632 2.99536C10.0732 3.14175 9.635 3.50683 9.37583 4.04188C9.22243 4.35854 9.17655 4.5974 9.19458 4.98568C9.21784 5.48646 9.39674 5.892 9.75045 6.2457C10.1042 6.59941 10.5097 6.77831 11.0105 6.80157C11.3988 6.8196 11.6376 6.77371 11.9543 6.62032C12.9486 6.13867 13.3424 4.99234 12.8548 3.99902C12.6922 3.66779 12.3284 3.30392 11.9971 3.14131C11.5698 2.93156 11.0768 2.87885 10.632 2.99536ZM11.5092 3.82615C12.2425 4.08348 12.4714 5.04726 11.9377 5.63116C11.5135 6.09534 10.779 6.11025 10.3324 5.66371C9.70171 5.03297 10.0348 3.95513 10.9155 3.77723C11.0715 3.74572 11.3439 3.7682 11.5092 3.82615ZM4.8834 4.42941C4.73382 4.52337 4.6914 4.61065 4.62866 4.95367C4.59725 5.12547 4.56233 5.28093 4.55108 5.29912C4.53982 5.31735 4.49203 5.34192 4.44489 5.35376C4.39772 5.36561 4.2562 5.42285 4.13041 5.48096L3.90168 5.58662L3.56723 5.35945C3.18258 5.09818 3.03184 5.04595 2.71112 5.0628C2.36779 5.08083 2.23719 5.15848 1.77645 5.61844C1.32449 6.06962 1.24687 6.19994 1.22368 6.54645C1.20358 6.84705 1.26538 7.02001 1.53528 7.41848L1.75263 7.7394L1.68785 7.86637C1.65222 7.93621 1.59314 8.07491 1.55659 8.17457C1.52002 8.27422 1.48066 8.36622 1.46913 8.379C1.45759 8.39182 1.2877 8.43118 1.0916 8.4665C0.529831 8.56766 0.275156 8.73459 0.0942865 9.12018C0.0173245 9.28426 0.012448 9.32456 0.0033201 9.8736C-0.00540142 10.3986 -0.00014976 10.4701 0.0586502 10.6273C0.21148 11.0358 0.48863 11.2461 1.00189 11.343C1.49711 11.4366 1.45947 11.4111 1.59842 11.7474C1.66588 11.9108 1.72759 12.0593 1.73553 12.0774C1.74344 12.0956 1.66979 12.2221 1.57185 12.3586C1.27244 12.7759 1.23237 12.8753 1.23224 13.201C1.23205 13.6142 1.3042 13.7497 1.77535 14.2208C2.24647 14.6919 2.38192 14.7641 2.79511 14.7639C3.12087 14.7638 3.22025 14.7237 3.63754 14.4243C3.77405 14.3264 3.90059 14.2527 3.91872 14.2606C3.93688 14.2686 4.07833 14.3269 4.23307 14.3903C4.38781 14.4537 4.52651 14.5168 4.54129 14.5304C4.55608 14.5441 4.59547 14.7077 4.62879 14.8941C4.66211 15.0804 4.72241 15.3054 4.7628 15.3939C4.85814 15.6028 5.05455 15.7967 5.27565 15.9004C5.44817 15.9813 5.46649 15.9832 6.0774 15.9832C6.6855 15.9832 6.70735 15.9809 6.87597 15.9019C7.26272 15.7205 7.42518 15.4713 7.53262 14.8946C7.59636 14.5525 7.60758 14.5227 7.68348 14.4942C7.72855 14.4773 7.88029 14.4143 8.02065 14.3542L8.27588 14.2449L8.5451 14.4363C8.94678 14.7218 9.05529 14.7638 9.39096 14.7636C9.78239 14.7634 9.90712 14.694 10.394 14.2054C10.8547 13.7432 10.9176 13.6305 10.9334 13.2404C10.9437 12.988 10.9373 12.9523 10.8495 12.7715C10.7972 12.6639 10.6772 12.4688 10.5829 12.338L10.4114 12.1002L10.4901 11.9317C10.5334 11.8389 10.5967 11.6892 10.6308 11.599C10.6977 11.4216 10.6852 11.4287 11.0321 11.3715C11.4582 11.3013 11.5933 11.2022 11.6184 10.9412C11.6315 10.804 11.623 10.7771 11.5342 10.676C11.3716 10.4908 11.3041 10.4833 10.7298 10.5871C10.4434 10.6388 10.1915 10.7014 10.1437 10.7328C10.0442 10.7979 10.0015 10.8767 9.90725 11.1691C9.86845 11.2895 9.76808 11.5307 9.68418 11.7051C9.46632 12.1579 9.46898 12.18 9.79862 12.654C10.1179 13.1132 10.1256 13.1268 10.1256 13.2346C10.1256 13.3441 9.56892 13.9225 9.43535 13.9518C9.32778 13.9754 9.29468 13.9581 8.83647 13.6371C8.62015 13.4856 8.42324 13.3714 8.35669 13.3589C8.26069 13.3409 8.18954 13.3634 7.8796 13.5098C7.67929 13.6044 7.42958 13.7093 7.32471 13.743C7.04837 13.8316 6.94449 13.8931 6.88857 14.0012C6.86131 14.0539 6.80485 14.2893 6.76312 14.5243C6.67406 15.0254 6.64662 15.1034 6.54271 15.1507C6.49791 15.1711 6.2951 15.186 6.06206 15.186C5.52864 15.186 5.52054 15.1798 5.43539 14.7015C5.29278 13.9004 5.2869 13.8901 4.8965 13.7622C4.75511 13.716 4.47508 13.6016 4.27421 13.5081C3.97774 13.3701 3.88943 13.3418 3.80518 13.3576C3.74785 13.3683 3.51278 13.5091 3.28005 13.672C3.04829 13.8342 2.82887 13.9669 2.79249 13.9669C2.70624 13.9669 2.52556 13.8314 2.3073 13.6031C2.09558 13.3817 2.02924 13.2858 2.02924 13.2014C2.02924 13.1662 2.16197 12.9479 2.32418 12.7161C2.48708 12.4834 2.62784 12.2483 2.63859 12.191C2.65438 12.1067 2.62603 12.0184 2.48805 11.7219C2.39458 11.5211 2.2802 11.241 2.2339 11.0997C2.10605 10.7092 2.09577 10.7034 1.29464 10.5608C0.81636 10.4756 0.810107 10.4675 0.810107 9.93409C0.810107 9.70105 0.825018 9.49823 0.845431 9.45344C0.89329 9.34841 0.971252 9.32162 1.49608 9.22993C2.07226 9.12927 2.11677 9.09958 2.23171 8.73893C2.27698 8.59695 2.39148 8.31686 2.4862 8.11655C2.63244 7.80726 2.65526 7.73533 2.63734 7.63999C2.62478 7.57303 2.50365 7.36668 2.33731 7.12895C2.18389 6.90966 2.05066 6.7001 2.04125 6.66327C2.0143 6.55768 2.09636 6.43811 2.39749 6.14411C2.62315 5.92382 2.69583 5.87058 2.77104 5.87058C2.83747 5.87058 2.97533 5.9477 3.24838 6.13757C3.45957 6.2844 3.65757 6.41804 3.6884 6.43454C3.80612 6.49753 3.97836 6.46537 4.26289 6.32723C4.41841 6.25174 4.67227 6.14545 4.82701 6.09106C5.30219 5.92404 5.29556 5.93373 5.4187 5.22328C5.49241 4.79787 5.49644 4.7371 5.45721 4.64498C5.35411 4.4029 5.086 4.30218 4.8834 4.42941ZM5.71982 7.21589C4.58037 7.37237 3.64523 8.2525 3.4159 9.3842C3.33979 9.75976 3.3697 10.3649 3.48167 10.7159C3.75573 11.5748 4.42185 12.2409 5.28028 12.5143C5.6006 12.6164 6.20069 12.654 6.5469 12.5937C7.39001 12.4468 8.11371 11.9076 8.50061 11.1379C8.68933 10.7625 8.78098 10.4195 8.7902 10.0543C8.79805 9.74256 8.75382 9.64881 8.55138 9.54822C8.30793 9.42724 8.02065 9.60321 7.98645 9.89427C7.90402 10.5961 7.78438 10.8779 7.41305 11.245C7.13583 11.5191 6.89551 11.6581 6.5433 11.7482C5.88931 11.9155 5.23317 11.7325 4.74839 11.2478C4.26361 10.763 4.08068 10.1068 4.24792 9.45285C4.33801 9.10064 4.47705 8.86031 4.75111 8.5831C5.11823 8.21177 5.40003 8.09213 6.10188 8.0097C6.39294 7.9755 6.5689 7.68822 6.44793 7.44477C6.33355 7.21457 6.1498 7.15684 5.71982 7.21589Z" fill="#82859E"/>
</svg>
