<svg width="16" height="16" viewBox="0 0 16 16" fill="none" xmlns="http://www.w3.org/2000/svg">
<path fill-rule="evenodd" clip-rule="evenodd" d="M7.09071 0.0448783C5.25063 0.26896 3.62258 1.05539 2.33662 2.34135C1.11332 3.56466 0.350649 5.07708 0.0701008 6.83603C-0.00825134 7.32718 -0.0239468 8.33823 0.0383972 8.87759C0.188067 10.1723 0.603183 11.3307 1.29438 12.3823C2.40781 14.0764 4.11515 15.2895 6.05894 15.7679C6.70939 15.9279 7.08555 15.9775 7.79419 15.9966C8.92495 16.027 9.91401 15.8561 10.9313 15.4545C13.3339 14.506 15.1385 12.4514 15.7605 9.95626C15.9452 9.21545 15.9851 8.86759 15.9851 8.00215C15.9851 7.12396 15.9446 6.77984 15.7509 6.01474C15.5982 5.41168 15.4593 5.03684 15.1722 4.45348C14.0944 2.263 12.0754 0.691236 9.67014 0.170223C8.90791 0.00513946 7.84228 -0.046668 7.09071 0.0448783ZM9.04148 1.19996C12.1507 1.68827 14.5299 4.20648 14.8435 7.34107C15.0453 9.35774 14.317 11.3932 12.8739 12.846C11.1499 14.5815 8.65497 15.2687 6.2798 14.6623C4.35567 14.171 2.69296 12.8125 1.82117 11.0193C0.882918 9.08945 0.882918 6.91485 1.82117 4.985C2.85313 2.8624 4.91336 1.42076 7.29394 1.1555C7.64712 1.11614 8.67407 1.14228 9.04148 1.19996ZM7.51192 3.99947C6.65418 4.12063 6.02952 4.56113 5.85515 5.16781C5.73065 5.60097 5.96414 5.95161 6.40549 5.99426C6.60897 6.0139 6.71443 5.94736 6.92594 5.66588C7.14858 5.36954 7.31695 5.25826 7.61157 5.21265C7.92126 5.16472 8.21122 5.20352 8.44402 5.32402C8.60682 5.40831 8.64872 5.44858 8.72579 5.59484C8.80405 5.74329 8.81421 5.79103 8.8007 5.94599C8.77059 6.29141 8.61389 6.50224 8.05995 6.94268C7.602 7.30677 7.43901 7.51509 7.28928 7.92755C7.13652 8.34842 7.12723 9.02442 7.27155 9.21952C7.3978 9.39023 7.73063 9.45476 8.03238 9.36703C8.30642 9.28736 8.34844 9.22064 8.37521 8.82269C8.40166 8.42999 8.4191 8.34783 8.51634 8.15848C8.6111 7.97395 8.73411 7.84207 9.07975 7.55439C9.57872 7.13906 9.86755 6.76315 10.0303 6.3173C10.4003 5.30341 9.83441 4.37297 8.66773 4.07704C8.34206 3.99441 7.80351 3.95826 7.51192 3.99947ZM7.41025 10.2088C7.0505 10.3881 6.88404 10.7868 6.99785 11.1965C7.04456 11.3647 7.27706 11.6073 7.47165 11.691C7.98113 11.9102 8.56646 11.5054 8.56646 10.9338C8.56646 10.3404 7.93751 9.94607 7.41025 10.2088Z" fill="#82859E"/>
</svg>
