<svg width="16" height="16" viewBox="0 0 16 16" fill="none" xmlns="http://www.w3.org/2000/svg">
<path fill-rule="evenodd" clip-rule="evenodd" d="M7.317 0.0104776C7.2654 0.0174515 7.09652 0.0387797 6.94172 0.0577937C4.40256 0.369993 2.09639 1.98253 0.887812 4.29089C0.457056 5.11365 0.210124 5.88857 0.0402485 6.9507C-0.0134162 7.28616 -0.0134162 8.71053 0.0402485 9.04599C0.210124 10.1081 0.457056 10.883 0.887812 11.7058C2.5578 14.8954 6.15436 16.5827 9.67812 15.8298C11.9963 15.3344 14.0067 13.7963 15.1038 11.6787C16.7077 8.58296 16.1202 4.80696 13.6505 2.33723C12.4199 1.10666 10.9297 0.353981 9.1603 0.0693961C8.86533 0.0219548 7.54379 -0.0202952 7.317 0.0104776ZM8.99011 1.00837C10.4861 1.22265 11.9 1.93246 12.9776 3.01007C15.4714 5.50385 15.7445 9.45642 13.6162 12.2543C13.3533 12.6 12.8329 13.1676 12.8066 13.1375C12.7942 13.1232 12.7449 12.9989 12.6972 12.8613C12.4374 12.1129 11.8934 11.3097 11.2887 10.7816C10.9941 10.5244 10.4811 10.1823 10.177 10.0403C10.0402 9.97643 9.9283 9.91492 9.9283 9.90359C9.9283 9.89231 9.98356 9.84646 10.0511 9.80177C10.2519 9.66886 10.5753 9.34984 10.7665 9.09597C11.233 8.47639 11.4684 7.77215 11.4679 6.99761C11.4677 6.58174 11.4292 6.3181 11.3161 5.95721C10.9619 4.82728 10.0129 3.91864 8.87577 3.6208C7.9064 3.36689 6.89847 3.53915 6.05006 4.10366C5.27436 4.61982 4.72255 5.46532 4.54823 6.40479C4.45895 6.8859 4.51871 7.61969 4.68762 8.11627C4.9059 8.758 5.43295 9.4744 5.92763 9.80177C5.99518 9.84646 6.05044 9.89212 6.05044 9.90319C6.05044 9.91426 5.92731 9.98406 5.7768 10.0583C5.2075 10.339 4.65341 10.7621 4.24282 11.2296C3.848 11.6792 3.46797 12.3242 3.28155 12.8613C3.23379 12.9989 3.18457 13.1232 3.17216 13.1375C3.14585 13.1676 2.62547 12.6 2.36253 12.2543C1.64353 11.3091 1.17143 10.1788 0.995798 8.98188C0.92118 8.47345 0.92043 7.51974 0.994266 7.02888C1.22903 5.4681 1.91326 4.09787 3.00109 3.01007C4.19641 1.81472 5.72823 1.11154 7.489 0.94989C7.75191 0.925747 8.66037 0.961148 8.99011 1.00837ZM8.57499 4.52659C9.07574 4.64665 9.45745 4.86919 9.8231 5.25416C10.0978 5.54344 10.2691 5.82768 10.4026 6.21578C10.4994 6.49714 10.5048 6.53686 10.5057 6.96633C10.5067 7.47771 10.4674 7.6747 10.2887 8.05288C9.9612 8.74643 9.38812 9.23426 8.65546 9.44329C8.30295 9.54386 7.66945 9.5443 7.32328 9.44423C6.5873 9.23144 6.01729 8.7459 5.69001 8.05288C5.51138 7.6747 5.47207 7.47771 5.47307 6.96633C5.47392 6.53686 5.47936 6.49714 5.57615 6.21578C5.70721 5.83478 5.87834 5.5475 6.13847 5.27174C6.50427 4.88395 6.90069 4.64828 7.38914 4.52816C7.72324 4.446 8.23605 4.44535 8.57499 4.52659ZM8.70471 10.5512C10.228 10.8206 11.4546 11.935 11.8869 13.4423C11.9303 13.5937 11.9613 13.7486 11.9556 13.7864C11.9483 13.836 11.8534 13.9108 11.617 14.0534C10.816 14.5367 9.83389 14.8773 8.86502 15.0077C8.42888 15.0664 7.45741 15.0582 7.0199 14.9921C6.02805 14.8424 5.06987 14.4972 4.27569 14.0036C3.97609 13.8174 3.97963 13.8289 4.09765 13.4199C4.45413 12.1843 5.40136 11.1612 6.58208 10.7363C7.2673 10.4898 7.99756 10.4261 8.70471 10.5512Z" fill="white"/>
</svg>
