<svg width="12" height="14" viewBox="0 0 12 14" fill="none" xmlns="http://www.w3.org/2000/svg">
<path fill-rule="evenodd" clip-rule="evenodd" d="M5.24763 0.0399167C4.39923 0.16327 3.54659 0.601241 2.93054 1.23012C2.66564 1.50051 2.534 1.67173 2.33251 2.00785C1.98261 2.59163 1.77854 3.30067 1.77184 3.95589C1.76957 4.1805 1.77892 4.2474 1.82548 4.33864C1.99494 4.67082 2.43095 4.76573 2.71433 4.53215C2.87313 4.40125 2.9161 4.28698 2.94903 3.90784C2.99922 3.32956 3.14316 2.89963 3.43172 2.46595C3.82169 1.87987 4.42595 1.4518 5.13259 1.26103C5.36855 1.19733 5.44822 1.18937 5.84935 1.18937C6.25048 1.18937 6.33015 1.19733 6.56611 1.26103C7.60723 1.54211 8.37426 2.30551 8.67091 3.35589C8.72629 3.55197 8.73086 3.63879 8.74123 4.6938L8.75233 5.82202L5.39311 5.82224C3.23274 5.82235 1.97044 5.83244 1.85611 5.8505C1.10322 5.96928 0.476362 6.45214 0.184445 7.13815C0.0127905 7.5415 0.0154435 7.50427 0.00354581 9.69219C-0.00818776 11.8447 0.00428434 12.1543 0.117025 12.5096C0.301863 13.0924 0.779657 13.6111 1.34259 13.8402C1.75119 14.0065 1.56758 14 5.84935 14C9.24905 14 9.78934 13.9945 9.96466 13.9583C10.8989 13.7653 11.5817 12.9967 11.6756 12.0323C11.7111 11.6673 11.7096 8.14067 11.6737 7.78735C11.5806 6.8694 10.9585 6.13456 10.0742 5.89806L9.95941 5.86737L9.94382 4.77117C9.92473 3.42878 9.88742 3.16835 9.62075 2.5154C9.34806 1.84779 8.88271 1.25498 8.27205 0.797293C7.94312 0.550751 7.39725 0.277268 7.00501 0.162476C6.46182 0.00353986 5.81035 -0.0418901 5.24763 0.0399167ZM9.708 7.02588C10.0232 7.08564 10.2787 7.28199 10.4123 7.56712L10.4853 7.72292V9.92467V12.1264L10.4182 12.2632C10.3192 12.465 10.1418 12.6404 9.94472 12.7314L9.77422 12.8102H5.84935H1.92449L1.75398 12.7314C1.55692 12.6404 1.37949 12.465 1.28048 12.2632L1.21336 12.1264V9.92467V7.72292L1.28639 7.56712C1.41532 7.29206 1.67745 7.0849 1.96912 7.0276C2.14447 6.99314 9.52669 6.9915 9.708 7.02588ZM5.22028 7.59013C4.93739 7.64264 4.68289 7.77781 4.4818 7.98234C4.30692 8.16023 4.19976 8.34551 4.14082 8.57175C4.07977 8.80615 4.07977 10.4415 4.14082 10.6759C4.2537 11.1092 4.58276 11.4536 5.03446 11.611C5.15994 11.6547 5.26858 11.6615 5.84935 11.6615C6.57678 11.6615 6.64754 11.6502 6.93776 11.489C7.10164 11.398 7.321 11.1801 7.42154 11.0084C7.5836 10.7317 7.59981 10.6057 7.59981 9.62381C7.59981 8.84518 7.59355 8.71111 7.54976 8.55318C7.43144 8.12653 7.12459 7.80442 6.67967 7.63991C6.56849 7.5988 6.44407 7.58969 5.91773 7.58411C5.57174 7.58044 5.25789 7.58315 5.22028 7.59013ZM6.36292 8.79116C6.42337 8.83348 6.42372 8.83837 6.42372 9.62381C6.42372 10.4092 6.42337 10.4141 6.36292 10.4565C6.31385 10.4908 6.2149 10.499 5.84935 10.499C5.48381 10.499 5.38485 10.4908 5.33578 10.4565C5.27534 10.4141 5.27498 10.4092 5.27498 9.62381C5.27498 8.83837 5.27534 8.83348 5.33578 8.79116C5.38485 8.75678 5.48381 8.74858 5.84935 8.74858C6.2149 8.74858 6.31385 8.75678 6.36292 8.79116Z" fill="white"/>
</svg>
