<svg width="299" height="315" viewBox="0 0 299 315" fill="none" xmlns="http://www.w3.org/2000/svg">
<mask id="mask0_1548_366" style="mask-type:luminance" maskUnits="userSpaceOnUse" x="3" y="-1" width="344" height="299">
<path d="M340.632 -0.76416H151.106C149.843 13.9098 140.953 41.1686 94.7676 55.7606C29.539 76.3738 -2.0795 103.459 4.39819 151.423C10.8759 199.387 56.7022 233.076 119.108 242.497C181.523 251.918 200.299 290.533 252.234 296.165C295.073 300.804 322.523 295.059 346.915 281.624V5.51296C346.915 2.05184 344.102 -0.76416 340.622 -0.76416H340.632Z" fill="white"/>
</mask>
<g mask="url(#mask0_1548_366)">
<path d="M340.632 -0.76416H151.106C149.843 13.9098 140.953 41.1686 94.7676 55.7606C29.539 76.3738 -2.0795 103.459 4.39819 151.423C10.8759 199.387 56.7022 233.076 119.108 242.497C181.523 251.918 200.299 290.533 252.234 296.165C295.073 300.804 322.523 295.059 346.915 281.624V5.51296C346.915 2.05184 344.102 -0.76416 340.622 -0.76416H340.632Z" fill="#F5F5F5"/>
<path d="M233.253 105.865L199.15 116.422L172.952 100.868C172.428 100.561 172.52 99.772 173.106 99.5979C176.278 98.6149 179.635 98.3487 182.92 98.8095L233.242 105.865H233.253Z" fill="#FFBB8A"/>
<path d="M179.994 98.6047L204.56 113.187L229.772 105.384L182.93 98.8198C181.955 98.6867 180.979 98.615 179.994 98.615V98.6047Z" fill="#FFBB8A"/>
<path d="M118.327 128.679L117.896 128.813C114.683 129.806 111.213 129.519 108.216 128.004L76.5869 112.029C75.3037 111.374 73.8049 111.251 72.4293 111.681L70.2324 112.357C69.8115 112.49 69.6062 112.951 69.7704 113.35L81.2065 140.179L82.8695 144.039L119.57 132.673L118.327 128.679Z" fill="#FFBB8A"/>
<path d="M151.332 145.729L291.634 102.281C299.682 99.7925 307.412 96.403 314.701 92.1842L333.159 81.4936C333.426 81.34 333.672 81.1557 333.898 80.9406C336.259 78.6878 334.945 74.7045 331.701 74.2949L311.036 71.6632C306.93 71.141 302.762 71.4994 298.799 72.7282L83.547 139.391C83.0542 139.544 82.6231 139.851 82.3049 140.261C81.2988 141.602 81.9045 143.538 83.5059 144.06L87.2427 145.279C108.041 152.047 130.441 152.201 151.332 145.729Z" fill="#FFBB8A"/>
<path d="M142.154 140.609L297.721 92.4299C306.642 89.6651 315.225 85.907 323.293 81.2376L333.734 75.1858C333.19 74.7147 332.502 74.387 331.691 74.2846L311.026 71.653C306.92 71.1307 302.752 71.4891 298.789 72.7179L83.5368 139.38C83.0441 139.534 82.6129 139.841 82.2947 140.251C81.6274 141.142 81.6787 142.278 82.2536 143.108C102.036 147.449 122.68 146.63 142.144 140.599L142.154 140.609Z" fill="#FBFBFB"/>
<path d="M281.556 86.9835L282.87 86.5766C283.352 86.4274 283.621 85.9167 283.471 85.436L283.064 84.1256C282.914 83.6449 282.402 83.3762 281.92 83.5255L280.606 83.9324C280.124 84.0816 279.855 84.5923 280.005 85.073L280.413 86.3834C280.562 86.8641 281.074 87.1328 281.556 86.9835Z" fill="#FFBB8A"/>
<path d="M272.456 89.8468L273.77 89.4399C274.252 89.2907 274.522 88.78 274.372 88.2993L273.964 86.9889C273.814 86.5082 273.302 86.2395 272.82 86.3888L271.507 86.7957C271.025 86.9449 270.755 87.4556 270.905 87.9363L271.313 89.2467C271.463 89.7274 271.975 89.9961 272.456 89.8468Z" fill="#FFBB8A"/>
<path d="M263.354 92.6391L264.668 92.2322C265.15 92.0829 265.419 91.5722 265.269 91.0915L264.861 89.7811C264.712 89.3004 264.2 89.0317 263.718 89.181L262.404 89.5879C261.922 89.7372 261.653 90.2478 261.803 90.7285L262.211 92.039C262.36 92.5197 262.872 92.7883 263.354 92.6391Z" fill="#FFBB8A"/>
<path d="M254.254 95.4718L255.568 95.0649C256.05 94.9157 256.319 94.405 256.17 93.9243L255.762 92.6139C255.612 92.1332 255.1 91.8645 254.618 92.0138L253.305 92.4207C252.823 92.5699 252.553 93.0806 252.703 93.5613L253.111 94.8717C253.261 95.3524 253.773 95.6211 254.254 95.4718Z" fill="#FFBB8A"/>
<path d="M245.165 98.2504L246.478 97.8435C246.96 97.6942 247.23 97.1836 247.08 96.7029L246.672 95.3924C246.522 94.9117 246.01 94.6431 245.528 94.7923L244.215 95.1992C243.733 95.3485 243.463 95.8592 243.613 96.3399L244.021 97.6503C244.171 98.131 244.683 98.3997 245.165 98.2504Z" fill="#FFBB8A"/>
<path d="M236.065 101.063L237.379 100.656C237.861 100.506 238.13 99.9958 237.981 99.5151L237.573 98.2047C237.423 97.724 236.911 97.4553 236.429 97.6046L235.115 98.0115C234.633 98.1607 234.364 98.6714 234.514 99.1521L234.922 100.463C235.071 100.943 235.583 101.212 236.065 101.063Z" fill="#FFBB8A"/>
<path d="M226.966 103.926L228.279 103.519C228.761 103.37 229.031 102.859 228.881 102.378L228.473 101.068C228.323 100.587 227.811 100.319 227.329 100.468L226.016 100.875C225.534 101.024 225.265 101.535 225.414 102.015L225.822 103.326C225.972 103.807 226.484 104.075 226.966 103.926Z" fill="#FFBB8A"/>
<path d="M217.866 106.748L219.18 106.342C219.662 106.192 219.931 105.682 219.781 105.201L219.373 103.89C219.224 103.41 218.712 103.141 218.23 103.29L216.916 103.697C216.434 103.847 216.165 104.357 216.315 104.838L216.722 106.148C216.872 106.629 217.384 106.898 217.866 106.748Z" fill="#FFBB8A"/>
<path d="M208.766 109.561L210.08 109.154C210.562 109.005 210.831 108.494 210.682 108.013L210.274 106.703C210.124 106.222 209.612 105.953 209.13 106.103L207.817 106.51C207.335 106.659 207.065 107.169 207.215 107.65L207.623 108.961C207.772 109.441 208.284 109.71 208.766 109.561Z" fill="#FFBB8A"/>
<path d="M199.674 112.329L200.987 111.923C201.469 111.773 201.739 111.263 201.589 110.782L201.181 109.472C201.031 108.991 200.519 108.722 200.038 108.871L198.724 109.278C198.242 109.428 197.973 109.938 198.122 110.419L198.53 111.729C198.68 112.21 199.192 112.479 199.674 112.329Z" fill="#FFBB8A"/>
<path d="M190.574 115.152L191.888 114.745C192.37 114.596 192.639 114.085 192.489 113.604L192.081 112.294C191.932 111.813 191.42 111.545 190.938 111.694L189.624 112.101C189.142 112.25 188.873 112.761 189.023 113.241L189.43 114.552C189.58 115.033 190.092 115.301 190.574 115.152Z" fill="#FFBB8A"/>
<path d="M181.474 118.005L182.788 117.598C183.27 117.449 183.539 116.938 183.39 116.458L182.982 115.147C182.832 114.667 182.32 114.398 181.838 114.547L180.525 114.954C180.043 115.103 179.773 115.614 179.923 116.095L180.331 117.405C180.481 117.886 180.992 118.155 181.474 118.005Z" fill="#FFBB8A"/>
<path d="M172.375 120.828L173.688 120.421C174.17 120.272 174.44 119.761 174.29 119.28L173.882 117.97C173.733 117.489 173.221 117.22 172.739 117.37L171.425 117.777C170.943 117.926 170.674 118.437 170.823 118.917L171.231 120.228C171.381 120.708 171.893 120.977 172.375 120.828Z" fill="#FFBB8A"/>
<path d="M247.738 104.216L195.228 120.477L175.939 162.226C175.405 163.373 176.493 164.601 177.705 164.233L178.988 163.833C182.499 162.748 185.712 160.905 188.422 158.427L247.748 104.216H247.738Z" fill="#FFBB8A"/>
<path d="M186.78 159.164C186.667 159.41 186.636 159.655 186.646 159.891C187.252 159.43 187.847 158.949 188.412 158.427L247.738 104.216L206.233 117.067L186.78 159.154V159.164Z" fill="#FFBB8A"/>
<path d="M100.496 137.005L82.0174 142.729L74.739 158.468L78.1678 157.403L100.496 137.005Z" fill="#FFBB8A"/>
<path d="M91.5852 92C92.6528 90.0339 95.5683 88.6311 99.0074 88.6311C99.9621 88.6311 100.876 88.7437 101.718 88.9485C102.138 87.7607 103.227 86.7264 104.715 86.0199C105.629 81.5962 111.562 78.176 118.759 78.176C124.189 78.176 128.901 80.1216 131.283 82.9786C132.597 82.4973 134.126 82.2106 135.759 82.2106C140.717 82.2106 144.731 84.7706 144.731 87.9245C144.731 88.1703 144.7 88.416 144.649 88.6618C144.916 88.6413 145.183 88.6311 145.46 88.6311C148.899 88.6311 151.814 90.0442 152.882 92H91.5955H91.5852Z" fill="#FBFBFB"/>
<path d="M-15.2095 123.744C-14.1418 121.778 -11.2264 120.375 -7.78732 120.375C-6.83261 120.375 -5.91894 120.488 -5.07715 120.692C-4.65626 119.505 -3.5681 118.47 -2.07957 117.764C-1.16592 113.34 4.76768 109.92 11.964 109.92C17.3946 109.92 22.1065 111.866 24.4882 114.722C25.8022 114.241 27.3318 113.954 28.964 113.954C33.9224 113.954 37.9363 116.514 37.9363 119.668C37.9363 119.914 37.9055 120.16 37.8542 120.406C38.1211 120.385 38.388 120.375 38.6652 120.375C42.1042 120.375 45.0197 121.788 46.0873 123.744H-15.1992H-15.2095Z" fill="#FBFBFB"/>
<path d="M234.885 143.558C235.952 141.592 238.868 140.189 242.307 140.189C243.262 140.189 244.175 140.302 245.017 140.507C245.438 139.319 246.526 138.285 248.015 137.578C248.928 133.155 254.862 129.734 262.058 129.734C267.489 129.734 272.201 131.68 274.582 134.537C275.896 134.056 277.426 133.769 279.058 133.769C284.017 133.769 288.031 136.329 288.031 139.483C288.031 139.729 288 139.974 287.948 140.22C288.215 140.2 288.482 140.189 288.759 140.189C292.198 140.189 295.114 141.603 296.182 143.558H234.895H234.885Z" fill="#FBFBFB"/>
<path d="M255.858 75.5034C254.78 73.5168 251.823 72.0833 248.333 72.0833C247.368 72.0833 246.434 72.1959 245.582 72.4007C245.161 71.1924 244.052 70.1479 242.543 69.4311C241.609 64.9357 235.593 61.4746 228.294 61.4746C222.781 61.4746 218.008 63.4509 215.585 66.3488C214.251 65.8573 212.7 65.5706 211.048 65.5706C206.017 65.5706 201.942 68.1716 201.942 71.3665C201.942 71.6225 201.973 71.8682 202.024 72.114C201.757 72.0935 201.48 72.0833 201.203 72.0833C197.712 72.0833 194.756 73.5168 193.678 75.5034H255.868H255.858Z" fill="#FBFBFB"/>
<path d="M248.456 21.733C249.308 20.1663 251.638 19.0399 254.379 19.0399C255.139 19.0399 255.868 19.1321 256.545 19.2857C256.884 18.3334 257.747 17.5142 258.937 16.951C259.666 13.4182 264.409 10.6841 270.148 10.6841C274.48 10.6841 278.247 12.2406 280.146 14.5138C281.194 14.1247 282.415 13.8994 283.719 13.8994C287.671 13.8994 290.884 15.9474 290.884 18.4665C290.884 18.661 290.854 18.8658 290.823 19.0502C291.038 19.0399 291.254 19.0297 291.47 19.0297C294.221 19.0297 296.541 20.1561 297.393 21.7228H248.456V21.733Z" fill="#FBFBFB"/>
<path d="M171.073 14.5651C171.453 13.8688 172.479 13.3671 173.701 13.3671C174.04 13.3671 174.358 13.408 174.666 13.4797C174.81 13.0599 175.2 12.6912 175.723 12.4454C176.052 10.8787 178.146 9.67041 180.692 9.67041C182.611 9.67041 184.285 10.3565 185.127 11.3703C185.589 11.1962 186.133 11.0938 186.707 11.0938C188.463 11.0938 189.88 11.9949 189.88 13.1213C189.88 13.2135 189.869 13.2954 189.849 13.3773C189.941 13.3773 190.034 13.3773 190.136 13.3773C191.358 13.3773 192.384 13.8791 192.764 14.5754H171.062L171.073 14.5651Z" fill="#FBFBFB"/>
<path d="M402.165 238.493H-8.45459V311.934H402.165V238.493Z" fill="#FFBB8A"/>
<path d="M402.165 211.398H-8.45459V227.27H402.165V211.398Z" fill="#FFBB8A"/>
<path opacity="0.1" d="M346.925 -0.764404H-14.4497V306.446H346.925V-0.764404Z" fill="#FFBB8A"/>
<g opacity="0.39">
<path d="M-19.2132 303.917H-35.2996L173.567 -16.6978H189.654L-19.2132 303.917Z" fill="#FBFBFB"/>
<path d="M245.417 303.917H229.331L438.198 -16.6978H454.284L245.417 303.917Z" fill="#FBFBFB"/>
<path d="M215.698 303.917H155.222L364.089 -16.6978H424.575L215.698 303.917Z" fill="#FBFBFB"/>
<path d="M-48.2857 303.917H-108.771L100.106 -16.6978H160.591L-48.2857 303.917Z" fill="#FBFBFB"/>
</g>
<path d="M84.6147 -36.2561H75.7759V302.657H84.6147V-36.2561Z" fill="#FBFBFB"/>
<path d="M429.308 56.8051V47.7837L-41.6439 47.7837V56.8051L429.308 56.8051Z" fill="#FBFBFB"/>
</g>
<path d="M161.618 314.648C205.762 314.648 241.547 311.169 241.547 306.876C241.547 302.584 205.762 299.104 161.618 299.104C117.474 299.104 81.689 302.584 81.689 306.876C81.689 311.169 117.474 314.648 161.618 314.648Z" fill="#F5F5F5"/>
<path d="M194.355 197.749L165.971 204.896C165.971 204.896 173.3 236.64 176.154 248.273C179.08 260.182 177.458 298.5 177.458 298.5H185.578L189.972 248.129L194.366 197.759L194.355 197.749Z" fill="#236B44"/>
<path d="M188.176 146.159C188.176 146.159 191.071 156.123 195.752 173.029C195.752 173.029 201.778 175.21 218.08 176.367L217.567 181.774C217.567 181.774 199.591 185.02 189.674 180.934C179.758 176.859 171.453 140.691 188.176 146.159Z" fill="#FFA689"/>
<path d="M203.892 181.006L212.392 190.826L226.128 172.988L220.574 162.298L203.892 181.006Z" fill="#5EB083"/>
<path d="M202.404 185.122L216.827 165.83L226.128 172.988L212.392 190.826L202.404 185.122Z" fill="#5EB083"/>
<path d="M223.736 176.951C223.675 176.654 223.295 176.541 223.038 176.705C222.545 177.023 221.95 177.76 220.554 177.801C219.158 177.842 217.33 176.869 216.725 177.504C216.725 177.504 213.706 181.344 216.766 185.143C216.766 185.143 226.025 187.549 223.736 176.951Z" fill="#FFA689"/>
<path d="M182.458 174.985C182.458 174.985 189.674 173.92 195.598 168.831C195.598 168.831 193.504 157.597 190.588 150.819C187.673 144.04 183.074 138.111 175.6 142.524C168.127 146.938 170.303 157.055 182.458 174.985Z" fill="#5EB083"/>
<path d="M158.343 170.459C158.343 170.459 164.503 174.36 172.315 174.36C172.315 174.36 178.084 164.489 180.312 157.454C182.54 150.429 182.94 142.934 174.389 141.408C165.837 139.882 160.858 148.965 158.333 170.459H158.343Z" fill="#5EB083"/>
<path d="M190.444 200.8C190.444 200.8 172.9 194.892 162.029 204.671C162.029 204.671 164.02 213.856 170.026 224.844C180.168 243.429 185.363 249.44 185.363 249.44C185.363 249.44 174.307 259.25 153.005 283.775C153.005 283.775 154.34 288.792 158.631 290.4C158.631 290.4 189.849 261.032 199.263 253.198C202.342 250.638 201.716 248.713 200.505 243.04C198.452 233.435 191.656 205.173 190.455 200.8H190.444Z" fill="#236B44"/>
<path d="M175.508 127.994L175.128 135.674C175.128 135.674 181.174 140.64 186.153 140.415L188.453 130.175L174.358 120.621L175.508 127.994Z" fill="#FFA689"/>
<path d="M178.413 126.652C178.413 126.652 181.626 132.632 187.488 134.455L188.453 130.164L178.413 126.642V126.652Z" fill="#ED8A6D"/>
<path d="M166.032 232.513L151.701 221.659C150.901 221.044 150.736 219.908 151.352 219.099C151.968 218.3 153.108 218.136 153.919 218.751L168.25 229.605C169.051 230.219 169.215 231.356 168.599 232.165C167.983 232.964 166.843 233.128 166.032 232.513Z" fill="#07150E"/>
<path d="M154.114 222.867L122.608 264.257" stroke="#07150E" stroke-width="0.94" stroke-miterlimit="10"/>
<path d="M164.205 230.537L132.699 271.917" stroke="#07150E" stroke-width="0.94" stroke-miterlimit="10"/>
<path d="M162.942 147.521C162.942 147.521 147.605 148.289 145.142 156.922C142.678 165.554 143.006 199.479 143.006 199.479C143.006 199.479 146.24 207.19 156.608 208.183C156.608 208.183 162.018 209.432 161.7 198.107C161.392 186.792 162.932 147.521 162.932 147.521H162.942Z" fill="#050D08"/>
<path d="M154.309 149.19C154.309 149.19 152.769 150.532 151.948 152.293C148.94 158.744 149.864 176.142 148.591 177.545C147.523 178.712 145.716 178.927 143.93 179.419C143.171 179.624 142.277 179.142 142.319 178.405C142.996 163.526 141.846 151.146 154.309 149.19Z" fill="#18432B"/>
<path d="M143.15 181.518C143.15 181.518 147.277 180.576 147.996 181.559C149.022 182.962 148.622 198.926 147.472 199.366C146.332 199.807 142.308 199.459 142.082 199.121C141.23 197.861 140.697 182.04 143.15 181.528V181.518Z" fill="#18432B"/>
<path d="M195.043 108.742C195.043 108.742 199.293 129.376 192.98 131.895C186.667 134.414 177.427 127.994 175.169 121.461C173.239 115.89 173.444 102.66 195.043 108.742Z" fill="#FFA689"/>
<path d="M188.781 111.978C188.781 111.978 190.496 116.361 187.108 117.395C184.346 118.235 183.546 120.262 183.546 120.262C183.546 120.262 182.981 115.859 179.973 115.695C176.698 115.521 176.883 120.18 179.758 122.474C179.758 122.474 179.758 128.004 175.508 128.004C175.508 128.004 165.919 117.027 170.108 110.401C169.492 108.384 172.356 102.998 179.706 102.312C187.057 101.626 189.171 103.336 194.756 101.605C200.094 99.9565 203.615 112.726 188.791 111.988L188.781 111.978Z" fill="#050D08"/>
<path opacity="0.22" d="M176.668 199.09L195.588 248.119L155.459 286.56" stroke="#FBFBFB" stroke-width="0.25" stroke-miterlimit="10"/>
<path d="M123.46 306.846C123.46 309.375 121.407 311.433 118.861 311.433C116.315 311.433 114.262 309.385 114.262 306.846C114.262 304.306 116.315 302.258 118.861 302.258C121.407 302.258 123.46 304.306 123.46 306.846Z" fill="#07150E"/>
<path d="M106.337 298.756C106.337 301.285 104.284 303.344 101.738 303.344C99.1921 303.344 97.1389 301.296 97.1389 298.756C97.1389 296.216 99.1921 294.168 101.738 294.168C104.284 294.168 106.337 296.216 106.337 298.756Z" fill="#07150E"/>
<path d="M143.602 263.377C143.602 263.377 145.018 283.857 137.668 295.162C130.318 306.467 119.59 304.634 119.59 304.634L121.797 301.173C121.797 301.173 129.548 304.337 134.137 292.264C138.736 280.191 137.812 267.657 137.812 267.657L143.591 263.377H143.602Z" fill="#07150E"/>
<path d="M135.102 257.591C135.102 257.591 139.701 258.031 143.345 262.394C146.158 265.752 125.103 298.234 120.37 305.443C119.806 306.303 118.759 306.702 117.763 306.436C114.375 305.535 106.542 303.108 100.855 298.828C100.855 298.828 122.588 260.786 135.102 257.591Z" fill="#050D08"/>
<path d="M136.734 257.95C136.734 257.95 119.446 247.576 110.166 256.188C104.007 261.902 92.1395 277.999 87.5404 284.348C86.4317 285.884 86.6062 287.994 87.9613 289.325C90.9281 292.223 97.1492 296.81 101.533 299.196C102.179 299.555 102.99 299.34 103.401 298.725C107.158 293.042 125.134 266.357 136.744 257.939L136.734 257.95Z" fill="#18432B"/>
<path d="M98.453 270.924C97.7755 270.391 96.7591 270.678 96.2356 271.364C94.0387 274.241 88.5465 281.44 87.7355 282.802C86.1444 285.464 92.6529 291.096 100.609 295.285C103.093 296.595 106.132 290.912 109.335 286.56C111.449 283.683 113.277 281.153 113.041 280.222C112.774 279.218 108.637 277.928 104.849 275.593C102.375 274.057 100.26 272.347 98.453 270.934V270.924Z" fill="#236B44"/>
<path d="M136.734 257.95C136.734 257.95 128.922 252.43 117.845 252.256C108.431 252.113 98.0937 268.364 98.0937 268.364C96.7592 270.074 112.887 279.822 114.683 277.6C121.808 268.845 128.778 262.199 132.33 258.994C132.576 258.789 134.486 257.253 136.744 257.95H136.734Z" fill="#236B44"/>
<path d="M107.435 297.097L117.065 282.607C117.414 282.085 118.102 281.891 118.666 282.167L128.09 286.622C128.685 286.908 128.891 287.646 128.532 288.198L119.2 302.309C118.666 303.118 117.619 303.446 116.716 303.067L108.175 299.514C107.22 299.114 106.871 297.957 107.435 297.097Z" fill="#103F26"/>
<path d="M172.982 136.646C172.982 136.646 163.558 138.346 162.029 152.406C160.499 166.465 162.029 206.258 162.029 206.258C162.029 206.258 170.857 209.668 180.866 204.804C187.313 201.67 191.43 201.496 193.175 201.107C193.883 200.943 194.376 200.339 194.386 199.612C194.407 198.076 194.427 195.127 194.417 190.683C194.386 178.262 193.042 157.126 187.683 142.627C187.683 142.627 178.587 137.087 172.993 136.646H172.982Z" fill="#5EB083"/>
<path d="M179.337 162.328C171.473 161.939 165.653 165.083 161.351 169.906C161.269 186.495 162.029 206.258 162.029 206.258C162.029 206.258 167.285 208.275 174.265 206.975C169.266 199.346 169.225 192.352 173.547 183.771C177.006 176.91 179.337 162.328 179.337 162.328Z" fill="#5EB083"/>
<path d="M162.029 152.406C162.029 152.406 169.502 140.271 174.974 142.319C181.698 144.838 183.063 157.802 172.982 171.38L167.613 177.043L166.238 182.081C166.238 182.081 179.912 170.049 183.125 158.355C186.338 146.661 182.119 142.022 176.226 140.015C168.989 137.547 165.519 141.951 161.105 148.033L162.019 152.385L162.029 152.406Z" fill="#050D08"/>
<path d="M160.797 164.939C160.797 164.939 158.497 174.872 157.738 187.406C157.091 197.943 156.988 210.917 156.978 214.778C156.978 215.443 156.721 216.078 156.249 216.539C154.997 217.768 152.584 220.809 152.995 225.683C153.139 227.393 153.888 229.759 158.148 231.121C158.734 231.305 160.273 231.95 160.273 228.97C160.273 225.99 161.485 223.983 162.706 222.99C163.928 221.997 165.18 224.618 165.18 226.748C165.18 228.878 166.618 227.526 166.905 226.011C167.192 224.495 166.967 220.42 163.743 216.18C163.743 216.18 163.682 215.433 164.092 210.333C164.493 205.234 165.355 187.969 167.192 183.556C169.03 179.142 174.317 166.557 174.317 166.557L160.817 164.929L160.797 164.939Z" fill="#FFA689"/>
<path d="M158.343 171.442C158.343 171.442 164.503 174.36 172.315 174.36C172.315 174.36 178.085 164.489 180.312 157.454C182.54 150.429 182.94 142.934 174.389 141.408C165.837 139.882 160.859 149.948 158.333 171.442H158.343Z" fill="#5EB083"/>
<path d="M177.612 297.66C177.612 297.66 175.354 300.937 176.462 305.678C176.626 306.385 177.232 306.866 177.899 306.866H202.291C202.794 306.866 203.194 306.395 203.133 305.862C202.968 304.48 201.829 302.074 196.029 301.367C194.438 301.172 192.918 300.579 191.656 299.595C189.572 297.967 186.389 295.735 185.291 296.349C185.291 296.349 181.79 298.459 177.602 297.66H177.612Z" fill="#050D08"/>
<path d="M175.21 133.994C174.337 134.025 172.972 136.646 172.972 136.646C172.972 136.646 175.559 138.633 181.831 140.927C184.736 141.992 186.194 143.487 186.861 144.429C187.067 144.715 187.508 144.603 187.549 144.255C187.734 142.862 187.816 140.415 186.451 139.002C186.451 139.002 177.807 136.646 175.189 133.994H175.21Z" fill="#236B44"/>
<path d="M153.128 283.846C153.128 283.846 149.176 284.348 146.353 288.321C145.932 288.905 145.973 289.683 146.425 290.185L162.645 308.361C162.983 308.74 163.599 308.719 163.959 308.32C164.883 307.276 165.919 304.828 162.614 300.036C161.7 298.725 161.136 297.199 161.033 295.602C160.869 292.96 160.427 289.11 159.226 288.7C159.226 288.7 155.325 287.492 153.139 283.846H153.128Z" fill="#050D08"/>
<path d="M163.189 225.775L167.028 228.684L166.71 230.383L162.234 228.151L163.189 225.775Z" fill="#07150E"/>
<path d="M58.3447 260.898C58.3447 261.994 52.3392 262.885 44.9274 262.885C37.5155 262.885 31.51 261.994 31.51 260.898C31.51 259.803 37.5155 258.912 44.9274 258.912C52.3392 258.912 58.3447 259.803 58.3447 260.898Z" fill="#103F26"/>
<path d="M44.9273 309.098C58.8519 309.098 70.1399 307.801 70.1399 306.2C70.1399 304.6 58.8519 303.302 44.9273 303.302C31.0027 303.302 19.7146 304.6 19.7146 306.2C19.7146 307.801 31.0027 309.098 44.9273 309.098Z" fill="#F5F5F5"/>
<path d="M48.1919 264.39C48.1919 264.39 45.4099 256.035 48.9619 252.256C52.5138 248.477 46.8266 242.098 55.2445 238.504C63.6624 234.899 63.375 226.482 70.6945 226.451C78.0242 226.41 83.7833 223.011 86.1752 226.236C88.5671 229.462 77.4596 231.028 77.439 236.507C77.4185 241.985 76.3303 242.507 73.3327 245.928C71.6492 247.843 72.4294 252.072 68.6926 256.178C65.7669 259.393 58.0573 258.308 48.1919 264.39Z" fill="#236B44"/>
<path d="M48.1919 264.39C48.1919 264.39 51.7028 256.004 59.7819 251.57C67.8611 247.126 65.0072 229.052 86.1854 226.236" stroke="#FBFBFB" stroke-width="0.4" stroke-linecap="round" stroke-linejoin="round"/>
<path d="M49.8446 268.363C49.8446 268.363 48.3663 256.413 51.0764 246.808C53.7866 237.203 49.3518 234.131 41.7654 231.643C34.1687 229.165 38.9423 221.249 36.6839 213.866C34.4254 206.483 28.7381 217.952 26.8493 207.906C24.9604 197.861 22.0859 192.669 19.7864 193.099C17.4869 193.53 16.717 195.752 15.0847 207.241C13.4422 218.73 5.44517 217.88 12.3848 226.994C19.3245 236.097 21.0902 233.527 17.2405 241.432C9.0074 258.318 38.4804 253.321 49.8548 268.363H49.8446Z" fill="#5EB083"/>
<path d="M49.8446 268.363C49.8446 268.363 46.0668 248.262 35.1748 238.34C24.2829 228.417 17.066 217.798 19.7864 193.11" stroke="#FBFBFB" stroke-width="0.48" stroke-linecap="round" stroke-linejoin="round"/>
<path d="M46.0566 266.725C46.0566 266.725 34.2304 235.473 26.0897 237.439C17.9489 239.415 17.1277 239.825 9.71579 233.906C2.29365 227.987 -3.09585 234.449 2.58111 239.19C8.25807 243.931 8.4531 244.361 3.04305 249.573C-2.367 254.795 10.5371 260.632 21.891 258.881C33.2449 257.12 44.2806 264.134 46.0566 266.725Z" fill="#236B44"/>
<path d="M46.0566 266.725C46.0566 266.725 40.513 255.103 25.5764 252.092C10.6397 249.082 17.6204 239.261 0.219971 234.715" stroke="#FBFBFB" stroke-width="0.44" stroke-linecap="round" stroke-linejoin="round"/>
<path d="M44.9273 262.895C38.7165 262.895 33.5118 262.271 31.9719 261.421C33.4913 263.387 38.3675 272.142 41.2624 305.821C41.2624 306.313 42.9049 306.702 44.9273 306.702C46.9496 306.702 48.5922 306.303 48.5922 305.821C51.4871 272.142 56.3633 263.387 57.8827 261.421C56.3531 262.271 51.1381 262.895 44.9273 262.895Z" fill="#FFBB8A"/>
</svg>
